<svg xmlns="http://www.w3.org/2000/svg" xmlns:xlink="http://www.w3.org/1999/xlink" width="14" height="14" viewBox="0 0 14 14" fill="none"><path id="形状" fill-rule="evenodd" style="fill:#000000" transform="translate(0 0)  rotate(0 7 7)" opacity="0.65" d="M0 7C0 10.87 3.13 14 7 14C10.87 14 14 10.87 14 7C14 3.13 10.87 0 7 0C3.13 0 0 3.13 0 7Z M5.45062 4.40312L4.42063 4.40312C4.35063 4.40312 4.29063 4.46312 4.29063 4.53312C4.29063 4.55312 4.30063 4.58312 4.32063 4.61312L6.35063 7.03312L4.32063 9.45312C4.30063 9.47313 4.29063 9.50312 4.29063 9.53312C4.29063 9.60312 4.35063 9.65312 4.42063 9.65312L5.45062 9.65312L7.00063 7.80312L8.55062 9.65312L9.58063 9.66313C9.65063 9.66313 9.71062 9.60312 9.71062 9.53312C9.71062 9.50312 9.70062 9.47313 9.68062 9.45312L7.65063 7.03312L9.68062 4.61312C9.70062 4.58312 9.71062 4.56312 9.71062 4.53312C9.71062 4.46312 9.65063 4.40312 9.58063 4.40312L8.55062 4.41313L7.00063 6.26312L5.45062 4.40312Z " /></svg>