<svg xmlns="http://www.w3.org/2000/svg" xmlns:xlink="http://www.w3.org/1999/xlink" width="12.5" height="12.5" viewBox="0 0 12.5 12.5" fill="none"><path id="形状" fill-rule="evenodd" style="fill:#000000" transform="translate(0 0)  rotate(0 6.230000019073486 6.230000019073486)" opacity="0.25" d="M12.46 11.6L8.4 7.54C9.03 6.73 9.38 5.74 9.38 4.69C9.38 3.44 8.89 2.26 8 1.37C7.12 0.49 5.94 0 4.69 0C3.44 0 2.26 0.49 1.37 1.37C0.49 2.26 0 3.44 0 4.69C0 5.94 0.49 7.12 1.37 8C2.26 8.89 3.43 9.38 4.69 9.38C5.73 9.38 6.73 9.04 7.54 8.41L11.6 12.46L11.78 12.46L12.46 11.78L12.46 11.6Z M8.1875 4.6875C8.1875 3.7575 7.8275 2.8775 7.1675 2.2075C6.4975 1.5475 5.6175 1.1875 4.6875 1.1875C3.7575 1.1875 2.8775 1.5475 2.2075 2.2075C1.5475 2.8775 1.1875 3.7575 1.1875 4.6875C1.1875 5.6175 1.5475 6.4975 2.2075 7.1675C2.8775 7.8275 3.7575 8.1875 4.6875 8.1875C5.6175 8.1875 6.4975 7.8275 7.1675 7.1675C7.8275 6.4975 8.1875 5.6175 8.1875 4.6875Z " /></svg>