<svg xmlns="http://www.w3.org/2000/svg" xmlns:xlink="http://www.w3.org/1999/xlink" width="17.70501708984375" height="17.7099609375" viewBox="0 0 17.70501708984375 17.7099609375" fill="none"><path id="路径 1" fill-rule="evenodd" style="fill:#AAAAAA" opacity="1" d="M14.71,7.42c-0.02,4.1 -3.31,7.44 -7.36001,7.44c-4.04999,0 -7.34999,-3.34 -7.34999,-7.44c0,-4.1 3.29,-7.42 7.34999,-7.42c4.06001,0 7.36001,3.33 7.36001,7.42zM7.34999,1.61c-3.16999,0 -5.75999,2.62 -5.75999,5.81c0,3.21 2.59,5.82 5.75999,5.82c3.18001,0.01 5.76001,-2.61 5.76001,-5.82c-0.01,-3.21 -2.59,-5.81 -5.76001,-5.81zM17.48,17.47c-0.16,0.17 -0.36,0.24 -0.56,0.24c-0.21,0 -0.41,-0.07 -0.57,-0.24l-2.72,-2.75c-0.31,-0.31 -0.31,-0.83 0,-1.14c0.31,-0.3 0.82,-0.3 1.13,0l2.72,2.76c0.3,0.3 0.3,0.82 0,1.13z"></path></svg>