<svg xmlns="http://www.w3.org/2000/svg" xmlns:xlink="http://www.w3.org/1999/xlink" width="11.969970703125" height="12.8299560546875" viewBox="0 0 11.969970703125 12.8299560546875" fill="none"><path id="分组 2" fill-rule="evenodd" style="fill:#7F7F7F" opacity="1" d="M10.15,0.97h-8.95c-0.14,-0.01 -0.25,0.1 -0.24,0.24v10.4c-0.01,0.15 0.1,0.26 0.24,0.26h1.94999c0.35,0 0.63,0.1 0.63,0.45c0,0.35 -0.28,0.51 -0.63,0.51h-1.88999c-0.69,0 -1.26,-0.57 -1.26,-1.28v-10.27c0,-0.71 0.57,-1.28 1.26,-1.28h8.82c0.7,0 1.26,0.57 1.24,1.28v2.61c0.02,0.35 -0.13,0.64 -0.48,0.64c-0.35,0 -0.44,-0.29 -0.48,-0.64v-2.68c0.04,-0.14 -0.07,-0.25 -0.21,-0.24zM3.14999,2.55h1.26c0.35,0 0.63,0.22 0.63,0.48c0,0.26 -0.28,0.48 -0.63,0.47h-1.26c-0.34,0.01 -0.63,-0.21 -0.63,-0.47c0,-0.26 0.29,-0.48 0.63,-0.48zM8.18998,12.83c-2.07999,0 -3.77999,-1.72 -3.77999,-3.85001c0,-2.12 1.7,-3.84999 3.77999,-3.84999c2.09002,0 3.78002,1.72999 3.78002,3.84999c0,2.13001 -1.69,3.85001 -3.78002,3.85001zM5.35999,8.98999c0,1.59001 1.27,2.88001 2.82999,2.88001c1.57,0 2.84002,-1.29 2.84002,-2.88001c0,-1.6 -1.27002,-2.89 -2.84002,-2.89c-1.55999,0 -2.82999,1.29 -2.82999,2.89zM9.46998,7.80999c0.18,-0.19 0.46,-0.19 0.63002,0c0.19,0.17 0.19,0.46 0,0.64l-1.97002,2.04001c-0.18,0.17 -0.46,0.17 -0.64,0l-1.12999,-1.14001c-0.18,-0.18 -0.18,-0.47 0,-0.66c0.17,-0.17 0.46999,-0.17 0.63999,0l0.81,0.82z"></path></svg>