<svg xmlns="http://www.w3.org/2000/svg" xmlns:xlink="http://www.w3.org/1999/xlink" width="16" height="16" viewBox="0 0 16 16" fill="none"><g opacity="1"  transform="translate(0 0)  rotate(0)"><mask id="bg-mask-0" fill="white"><use transform="translate(0 0)  rotate(NaN)" xlink:href="#path_0"></use></mask><g mask="url(#bg-mask-0)" ><g opacity="1"  transform="translate(0.4966278076171875 0)  rotate(0)"><path id="路径 1" fill-rule="evenodd" style="fill:#FFFFFF" opacity="0.6" d="M6.79288 9.48888L4.28288 6.97887C4.15288 6.84887 3.97288 6.79887 3.79288 6.83887C3.62288 6.88887 3.48288 7.01887 3.44288 7.19887C3.39288 7.36887 3.44288 7.55887 3.57288 7.67887L6.43288 10.5489C6.53288 10.6389 6.66288 10.6889 6.79288 10.6889C6.92288 10.6889 7.05288 10.6389 7.14288 10.5489L11.4329 6.25887C11.5629 6.12887 11.6129 5.94887 11.5629 5.76887C11.5229 5.59887 11.3829 5.45887 11.2129 5.41886C11.0329 5.36886 10.8529 5.41886 10.7229 5.54887L10.7229 5.54887L6.79288 9.48888Z"></path><path id="路径 2" fill-rule="evenodd" style="fill:#FFFFFF" opacity="0.6" d="M14.22,2.85999v0c0.48,0.22 0.79,0.7 0.79,1.22v0.89c0,4 -2.06,7.73001 -5.45,9.86001l-1.72,1.09c-0.18,0.11 -0.4,0.11 -0.58,0l-1.76,-1.09c-3.42,-2.13 -5.5,-5.87002 -5.5,-9.90001v-0.84c0,-0.53 0.31,-1.01 0.8,-1.23l6.2,-2.73999c0.35,-0.16 0.75,-0.16 1.09,0zM14.01,4.07999c0,-0.13 -0.08,-0.25 -0.2,-0.3l-6.12,-2.74999c-0.05,-0.02 -0.09,-0.03 -0.14,-0.03c-0.05,0 -0.1,0.01 -0.14,0.03l-6.21,2.74999c-0.12,0.05 -0.2,0.17 -0.2,0.31v0.83c0,3.68999 1.9,7.11001 5.03,9.06001l1.23,0.76c0.17,0.11 0.4,0.11 0.58,-0.01l1.19,-0.75c3.1,-1.95 4.98,-5.35002 4.98,-9.01001z"></path></g></g></g><defs><rect id="path_0" x="0" y="0" width="16" height="16" /></defs></svg>