<?xml version="1.0" encoding="utf-8"?>
<!-- Generator: Adobe Illustrator 26.0.0, SVG Export Plug-In . SVG Version: 6.00 Build 0)  -->
<svg version="1.1" id="图层_1" xmlns="http://www.w3.org/2000/svg" xmlns:xlink="http://www.w3.org/1999/xlink" x="0px" y="0px"
	 viewBox="0 0 39.7 39.7" style="enable-background:new 0 0 39.7 39.7;" xml:space="preserve">
<style type="text/css">
	.st0{fill:#AAAAAA;}
</style>
<g>
	<path class="st0" d="M17.9,10.7c-4.2,0-7.6,3.5-7.6,7.6c0,3.4,2.3,6.2,5.4,7.1c0-0.6,0.1-1.2,0.2-1.8c0-0.2,0.1-0.3,0.2-0.5
		c-2-0.8-3.4-2.6-3.4-4.8c0-3,2.4-5.4,5.4-5.4c2,0,3.7,1.1,4.6,2.8c0.5-0.4,1.1-0.6,1.7-0.7c0.2,0,0.3-0.1,0.5-0.1
		C23.4,12.5,20.9,10.7,17.9,10.7z M17.9,10.7c-4.2,0-7.6,3.5-7.6,7.6c0,3.4,2.3,6.2,5.4,7.1c0-0.6,0.1-1.2,0.2-1.8
		c0-0.2,0.1-0.3,0.2-0.5c-2-0.8-3.4-2.6-3.4-4.8c0-3,2.4-5.4,5.4-5.4c2,0,3.7,1.1,4.6,2.8c0.5-0.4,1.1-0.6,1.7-0.7
		c0.2,0,0.3-0.1,0.5-0.1C23.4,12.5,20.9,10.7,17.9,10.7z M17.9,10.7c-4.2,0-7.6,3.5-7.6,7.6c0,3.4,2.3,6.2,5.4,7.1
		c0-0.6,0.1-1.2,0.2-1.8c0-0.2,0.1-0.3,0.2-0.5c-2-0.8-3.4-2.6-3.4-4.8c0-3,2.4-5.4,5.4-5.4c2,0,3.7,1.1,4.6,2.8
		c0.5-0.4,1.1-0.6,1.7-0.7c0.2,0,0.3-0.1,0.5-0.1C23.4,12.5,20.9,10.7,17.9,10.7z M33.5,11.9c-0.2-0.5-0.6-1.4-0.8-1.7
		c-0.5-0.8-1.1-1.6-1.6-2.3L29.7,7l-4.5,0.5c-0.2,0-0.5-0.1-0.5-0.3L23,2.6l-1.5-0.3c-2.3-0.5-4.9-0.5-7,0H13l-1.9,5.1
		c-0.1,0-0.2,0.1-0.4,0.1L5.9,6.7L4.8,7.6L4.5,7.8c-1.1,1.5-2,3.3-2.9,5.3l-0.3,1.3l3.2,3.8c0.1,0.1,0.1,0.2,0.1,0.2L1,22.3l0.6,1.4
		c0.2,1.1,0.6,2.1,1.1,3c0.5,0.8,1.1,1.6,1.7,2.3l1,1l5.1-0.8c0.1,0,0.3,0.1,0.5,0.3l1.6,4.6l1.5,0.3c1.1,0.3,2.4,0.5,3.6,0.5
		c1.1,0,2.2-0.2,3.3-0.4c-0.8-0.4-1.7-1-2.3-1.7c-0.1-0.1-0.2-0.2-0.2-0.3c-1.4,0.2-2.6,0-3.9-0.3l-0.3-0.1l-1.2-3.6l-0.2-0.2
		c-0.6-0.9-1.4-1.4-2.5-1.4c-0.1,0-0.1,0-0.1,0l-4.2,0.7l-0.1-0.2c-0.5-0.5-1-1.1-1.3-1.7c-0.5-0.8-0.8-1.6-1.1-2.6l-0.1-0.3L6.3,20
		c0.8-0.8,0.8-2.1,0.1-3.2l-2.6-3c0.7-1.7,1.5-3.2,2.5-4.5l0.2-0.2l3.9,0.6h0.4c1.2,0,2.2-0.6,2.5-1.6l1.4-3.6l0.2-0.1
		C16.8,4,19,4,21,4.5h0.2l1.2,3.3c0.3,1.1,1.4,1.9,2.9,1.9l4-0.5l0.2,0.1c0.5,0.6,0.9,1.2,1.2,1.7c0.2,0.4,0.5,1,0.7,1.6l0.5,1.1
		l-1.6,2c0.7,0.3,1.3,0.7,1.9,1.1l2.3-2.9L33.5,11.9z M17.9,10.7c-4.2,0-7.6,3.5-7.6,7.6c0,3.4,2.3,6.2,5.4,7.1
		c0-0.6,0.1-1.2,0.2-1.8c0-0.2,0.1-0.3,0.2-0.5c-2-0.8-3.4-2.6-3.4-4.8c0-3,2.4-5.4,5.4-5.4c2,0,3.7,1.1,4.6,2.8
		c0.5-0.4,1.1-0.6,1.7-0.7c0.2,0,0.3-0.1,0.5-0.1C23.4,12.5,20.9,10.7,17.9,10.7z M17.9,10.7c-4.2,0-7.6,3.5-7.6,7.6
		c0,3.4,2.3,6.2,5.4,7.1c0-0.6,0.1-1.2,0.2-1.8c0-0.2,0.1-0.3,0.2-0.5c-2-0.8-3.4-2.6-3.4-4.8c0-3,2.4-5.4,5.4-5.4
		c2,0,3.7,1.1,4.6,2.8c0.5-0.4,1.1-0.6,1.7-0.7c0.2,0,0.3-0.1,0.5-0.1C23.4,12.5,20.9,10.7,17.9,10.7z M17.9,10.7
		c-4.2,0-7.6,3.5-7.6,7.6c0,3.4,2.3,6.2,5.4,7.1c0-0.6,0.1-1.2,0.2-1.8c0-0.2,0.1-0.3,0.2-0.5c-2-0.8-3.4-2.6-3.4-4.8
		c0-3,2.4-5.4,5.4-5.4c2,0,3.7,1.1,4.6,2.8c0.5-0.4,1.1-0.6,1.7-0.7c0.2,0,0.3-0.1,0.5-0.1C23.4,12.5,20.9,10.7,17.9,10.7z"/>
	<path class="st0" d="M38,31.6L34,27.8c0.5-1.5,0.5-3.1,0.1-4.5c-0.4-1.4-1.1-2.6-2.1-3.6c-0.9-0.9-1.9-1.5-3-1.9
		c-0.8-0.4-1.8-0.5-2.7-0.5c-0.3,0-0.6,0-0.9,0.1c-0.2,0-0.5,0.1-0.7,0.1c-0.7,0.1-1.3,0.6-1.5,1.3c-0.1,0.3-0.2,0.6-0.1,0.8
		c0.1,0.5,0.2,0.9,0.5,1.2l1,1l2.9,2.8v0.3l-2,2c0,0.1-0.1,0.1-0.2,0.1c-0.1,0-0.2,0-0.2-0.1l-2.6-2.6l-1.2-1.2
		c-0.2-0.2-0.3-0.2-0.5-0.3c-0.3-0.2-0.6-0.2-1-0.2c-0.2,0-0.5,0-0.6,0.1c-0.5,0.2-1.1,0.6-1.2,1.1c-0.1,0.1-0.1,0.2-0.1,0.3
		c-0.1,0.7-0.2,1.4-0.1,2c0.1,2,0.9,3.9,2.3,5.3c0.3,0.3,0.6,0.5,0.9,0.7c0.6,0.5,1.3,0.9,2,1.1c0.9,0.4,1.9,0.5,2.9,0.5
		c0.8,0,1.7-0.1,2.4-0.3l3.9,3.9c0.5,0.5,1.1,0.7,1.7,0.7c0.7,0,1.3-0.2,1.8-0.7l2-1.9C38.9,34.3,38.9,32.6,38,31.6z M36.3,33.6
		l-1.9,1.9c-0.1,0.1-0.2,0.1-0.2,0.1s-0.2,0-0.2-0.1l-4.1-4c-0.3-0.2-0.8-0.5-1.5-0.5c-0.2,0-0.4,0-0.6,0.1
		c-0.6,0.2-1.1,0.2-1.7,0.2c-0.8,0-1.4-0.2-2.1-0.5c-0.8-0.2-1.4-0.7-2-1.3l-0.1-0.1c-1.1-1.1-1.7-2.4-1.7-4.1V25l0.3,0.3l2.3,2.3
		l0.7,0.7c0.4,0.3,0.8,0.5,1.3,0.6c0.2,0.1,0.4,0.1,0.5,0.1c0.7,0,1.3-0.2,1.8-0.7l1.1-1.1l0.8-0.8c0.5-0.5,0.7-1.1,0.7-1.8
		c0-0.7-0.2-1.4-0.8-1.8l-3.3-3.3h0.5c1.5,0,3,0.6,4.2,1.8c0.5,0.5,1,1.1,1.3,1.8c0.5,1.2,0.6,2.7,0.2,4.2c0,0.2-0.1,0.2-0.1,0.5
		v0.1c0,0.6,0.2,1.2,0.7,1.7l3.9,3.9C36.5,33.4,36.5,33.5,36.3,33.6z"/>
</g>
</svg>
