<svg xmlns="http://www.w3.org/2000/svg" xmlns:xlink="http://www.w3.org/1999/xlink" width="16" height="16" viewBox="0 0 16 16" fill="none"><g opacity="1"  transform="translate(0 0)  rotate(0)"><mask id="bg-mask-0" fill="white"><use transform="translate(0 0)  rotate(NaN)" xlink:href="#path_0"></use></mask><g mask="url(#bg-mask-0)" ><path id="并集" fill-rule="evenodd" style="fill:#FFFFFF" opacity="0.6" d="M15.1634,6.38c0,-0.21 0.19,-0.39 0.42,-0.39c0.23,0 0.41,0.18 0.41,0.39v5.07c0,0.14 -0.08,0.28 -0.21,0.34l-7.81997,4.16c-0.02,0.01 -0.03,0.01 -0.04,0.01c-0.04,0.02 -0.09,0.03 -0.14,0.04c-0.01,0 -0.01,0 -0.02,0c-0.01,0 -0.03,0 -0.04,0c-0.06,0 -0.11,-0.02 -0.16,-0.04c-0.01,-0.01 -0.01,-0.01 -0.02,-0.01v0l-7.34,-4.16c-0.12,-0.07 -0.2,-0.2 -0.2,-0.34v-7.37c0,-0.05 0.01,-0.09 0.03,-0.13c-0.06,-0.18 0.03,-0.37 0.2,-0.45l7.34,-3.46c0.11,-0.05 0.25,-0.05 0.37,0l7.32997,3.46c0.14,0.06 0.23,0.19 0.23,0.34c0.01,0.14 -0.08,0.28 -0.21,0.35l-7.13997,3.81c0.01,0.03 0.02,0.06 0.02,0.09v6.85l6.98997,-3.72zM1.30343,3.87l6.45,3.44l6.44997,-3.44l-6.44997,-3.04zM7.35343,8l-6.52,-3.48v6.71l6.51,3.69v-6.83c0,-0.03 0.01,-0.06 0.01,-0.09zM2.59343,6.51l2.44,1.38c0.09,0.05 0.16,0.14 0.19,0.24c0.03,0.1 0.01,0.21 -0.05,0.3c-0.12,0.18 -0.37,0.24 -0.57,0.13l-2.44,-1.38c-0.1,-0.05 -0.16,-0.14 -0.19,-0.24c-0.03,-0.1 -0.01,-0.21 0.04,-0.3c0.13,-0.19 0.38,-0.24 0.58,-0.13z"></path></g></g><defs><rect id="path_0" x="0" y="0" width="16" height="16" /></defs></svg>