<svg xmlns="http://www.w3.org/2000/svg" xmlns:xlink="http://www.w3.org/1999/xlink" width="16" height="16" viewBox="0 0 16 16" fill="none"><g opacity="1"  transform="translate(0 0)  rotate(0)"><mask id="bg-mask-0" fill="white"><use transform="translate(0 0)  rotate(NaN)" xlink:href="#path_0"></use></mask><g mask="url(#bg-mask-0)" ><path id="并集" fill-rule="evenodd" style="fill:#FFFFFF" opacity="0.6" d="M15.83,7.61c0.23,0.23 0.23,0.59 0,0.81c-0.11,0.11 -0.26,0.17 -0.4,0.17c-0.15,0 -0.29,-0.06 -0.41,-0.17l-7.01997,-7.04l-7.02,7.04c-0.23,0.22 -0.59,0.23 -0.81,0c-0.23,-0.22 -0.23,-0.58 0,-0.81l7.43,-7.44c0.1,-0.11 0.25,-0.17 0.4,-0.17c0.15,0 0.3,0.06 0.4,0.17zM7.39003,8.33c0,0.5 -0.4,0.9 -0.9,0.9h-1.55c-0.5,0 -0.9,-0.4 -0.9,-0.9v-1.55c0,-0.5 0.4,-0.91 0.9,-0.91h1.55c0.5,0 0.9,0.41 0.9,0.91zM6.32003,6.95h-1.21v1.21h1.21zM14.29,9.16v6.27c0,0.31 -0.26,0.57 -0.58,0.57h-11.41997c-0.32,0 -0.58,-0.26 -0.58,-0.57v-6.27c0,-0.31 0.26,-0.57 0.58,-0.57c0.31,0 0.57,0.26 0.57,0.57v5.7h10.27997v-5.7c0,-0.31 0.26,-0.57 0.57,-0.57c0.32,0 0.58,0.26 0.58,0.57zM7.39003,12.81c0,0.5 -0.4,0.9 -0.9,0.9h-1.55c-0.5,0 -0.9,-0.4 -0.9,-0.9v-1.55c0,-0.5 0.4,-0.9 0.9,-0.9h1.55c0.5,0 0.9,0.4 0.9,0.9zM11.96,12.81c0,0.5 -0.4,0.9 -0.9,0.9h-1.54997c-0.5,0 -0.9,-0.4 -0.9,-0.9v-1.55c0,-0.5 0.4,-0.9 0.9,-0.9h1.54997c0.5,0 0.9,0.4 0.9,0.9zM6.32003,11.43h-1.21v1.21h1.21zM10.89,11.43h-1.20997v1.21h1.20997z"></path></g></g><defs><rect id="path_0" x="0" y="0" width="16" height="16" /></defs></svg>