<svg xmlns="http://www.w3.org/2000/svg" xmlns:xlink="http://www.w3.org/1999/xlink" width="86" height="24" viewBox="0 0 86 24" fill="none"><g opacity="1"  transform="translate(0 0)  rotate(0)"><g opacity="1"  transform="translate(0 0)  rotate(0)"><path id="矩形 9" fill-rule="evenodd" style="fill:#21AB92" opacity="0.1" d="M4 24L82 24C84.21 24 86 22.21 86 20L86 4C86 1.79 84.21 0 82 0L4 0C1.79 0 0 1.79 0 4L0 20C0 22.21 1.79 24 4 24Z"></path><g opacity="1"  transform="translate(22.9998779296875 5)  rotate(0)"><g opacity="1" transform="translate(15.9998779296875 0)  rotate(0)"><text><tspan x="0" y="12.232" font-size="12" line-height="14" fill="#21AB92" opacity="1" font-family="SourceHanSansCN-Regular" font-weight="Regular" letter-spacing="0" >起草</tspan></text></g><g opacity="1"  transform="translate(0 0)  rotate(0)"><path id="矩形 1" fill-rule="evenodd" style="fill:#CCCCCC" opacity="0" d="M0 14L14 14L14 0L0 0L0 14Z"></path><path id="并集" fill-rule="evenodd" style="fill:#21AB92" opacity="1" d="M1.67342,11.36c0,0.54 0.43,0.97 0.97,0.97h8.71998c0.54,0 0.97,-0.43 0.97,-0.97v-5.07v0v-0.71c0,-0.18 0.14,-0.33 0.33,-0.33c0.18,0 0.34,0.15 0.34,0.33v0.94c0,0.01 0,0.02 0,0.02v4.82c0,0.91 -0.73,1.64 -1.64,1.64h-8.71998c-0.91,0 -1.64,-0.73 -1.64,-1.64v-8.72c0,-0.91 0.73,-1.64 1.64,-1.64h5.82c0.18,0 0.33,0.16 0.33,0.34c0,0.18 -0.15,0.33 -0.33,0.33h-5.82c-0.54,0 -0.97,0.43 -0.97,0.97zM4.70342,7.25l5.91998,-5.88c0.42,-0.42 1.12,-0.42 1.55,0l0.41,0.4c0.2,0.21 0.31,0.48 0.31,0.77c0,0.29 -0.11,0.57 -0.31,0.77l-5.91998,5.88l-1.85,0.48c0,0 -0.11,0.02 -0.17,0.02c-0.1,0 -0.22,-0.02 -0.32,-0.12c-0.16,-0.15 -0.13,-0.37 -0.1,-0.49zM12.1034,2.84c0.15,-0.16 0.15,-0.42 0,-0.58l-0.41,-0.4c-0.16,-0.16 -0.42,-0.16 -0.59,0l-0.33,0.33l0.99,0.99zM5.67342,7.25l0.99,1l4.61998,-4.6l-0.99,-0.98zM4.96342,8.94l1.16,-0.29l-0.86,-0.85z"></path></g></g></g></g></svg>