<svg xmlns="http://www.w3.org/2000/svg" xmlns:xlink="http://www.w3.org/1999/xlink" width="12" height="12" viewBox="0 0 12 12" fill="none"><path id="并集" fill-rule="evenodd" style="fill:#21AB92" opacity="1" d="M0.67,10.36c0,0.54 0.43,0.97 0.97,0.97h8.72c0.54,0 0.97,-0.43 0.97,-0.97v-5.07v0v-0.71c0,-0.18 0.14,-0.33 0.33,-0.33c0.18,0 0.34,0.15 0.34,0.33v0.94c0,0.01 0,0.02 0,0.02v4.82c0,0.91 -0.73,1.64 -1.64,1.64h-8.72c-0.91,0 -1.64,-0.73 -1.64,-1.64v-8.72c0,-0.91 0.73,-1.64 1.64,-1.64h5.82c0.18,0 0.33,0.16 0.33,0.34c0,0.18 -0.15,0.33 -0.33,0.33h-5.82c-0.54,0 -0.97,0.43 -0.97,0.97zM3.7,6.25l5.92,-5.88c0.42,-0.42 1.12,-0.42 1.55,0l0.41,0.4c0.2,0.21 0.31,0.48 0.31,0.77c0,0.29 -0.11,0.57 -0.31,0.77l-5.92,5.88l-1.85,0.48c0,0 -0.11,0.02 -0.17,0.02c-0.1,0 -0.22,-0.02 -0.32,-0.12c-0.16,-0.15 -0.13,-0.37 -0.1,-0.49zM11.1,1.84c0.15,-0.16 0.15,-0.42 0,-0.58l-0.41,-0.4c-0.16,-0.16 -0.42,-0.16 -0.59,0l-0.33,0.33l0.99,0.99zM4.67,6.25l0.99,1l4.62,-4.6l-0.99,-0.98zM3.96,7.94l1.16,-0.29l-0.86,-0.85z"></path></svg>