<svg xmlns="http://www.w3.org/2000/svg" xmlns:xlink="http://www.w3.org/1999/xlink" width="14" height="11" viewBox="0 0 14 11" fill="none"><path id="路径 1" fill-rule="evenodd" style="fill:#555555" opacity="1" d="M0,0.5c0,-0.3 0.2,-0.5 0.5,-0.5h13c0.3,0 0.5,0.2 0.5,0.5c0,0.3 -0.2,0.5 -0.5,0.5h-13c-0.3,0 -0.5,-0.2 -0.5,-0.5zM0,10.5c0,-0.3 0.2,-0.5 0.5,-0.5h9c0.3,0 0.5,0.2 0.5,0.5c0,0.3 -0.2,0.5 -0.5,0.5h-9c-0.3,0 -0.5,-0.2 -0.5,-0.5zM13.5,5c0,1.1 -0.5,2 -1.2,2.7l1.5,2.3c0.2,0.2 0.1,0.5 -0.1,0.7c-0.2,0.2 -0.5,0.1 -0.7,-0.1l-1.5,-2.3c-0.5,0.1 -1,0.2 -1.5,0.2c-1.9,0 -3.5,-1.6 -3.5,-3.5c0,-1.9 1.6,-3.5 3.5,-3.5c1.9,0 3.5,1.6 3.5,3.5zM10,7.5c1.4,0 2.5,-1.1 2.5,-2.5c0,-1.4 -1.1,-2.5 -2.5,-2.5c-1.4,0 -2.5,1.1 -2.5,2.5c0,1.4 1.1,2.5 2.5,2.5zM0,5.5c0,-0.3 0.2,-0.5 0.5,-0.5h4c0.3,0 0.5,0.2 0.5,0.5c0,0.3 -0.2,0.5 -0.5,0.5h-4c-0.3,0 -0.5,-0.2 -0.5,-0.5z"></path></svg>