<svg xmlns="http://www.w3.org/2000/svg" xmlns:xlink="http://www.w3.org/1999/xlink" width="16" height="16" viewBox="0 0 16 16" fill="none"><g opacity="1"  transform="translate(0 0)  rotate(0)"><mask id="bg-mask-0" fill="white"><use transform="translate(0 0)  rotate(NaN)" xlink:href="#path_0"></use></mask><g mask="url(#bg-mask-0)" ><path id="并集" fill-rule="evenodd" style="fill:#FFFFFF" opacity="0.6" d="M2.6687,1.07c-0.3,0 -0.54,-0.24 -0.54,-0.54c0,-0.29 0.24,-0.53 0.54,-0.53h10.66c0.3,0 0.54,0.24 0.54,0.53c0,0.3 -0.24,0.54 -0.54,0.54zM1.6287,3.38c-0.29,0 -0.53,-0.24 -0.53,-0.53c0,-0.3 0.24,-0.54 0.53,-0.54h12.8c0.3,0 0.54,0.24 0.54,0.54c0,0.29 -0.24,0.53 -0.54,0.53zM14.4,4.5013c0.88,0 1.6,0.72 1.6,1.6v8.3c0,0.88 -0.72,1.6 -1.6,1.6h-12.8c-0.88,0 -1.6,-0.72 -1.6,-1.6v-8.3c0,-0.88 0.72,-1.6 1.6,-1.6zM14.93,6.1013c0,-0.29 -0.24,-0.53 -0.53,-0.53h-12.8c-0.29,0 -0.53,0.24 -0.53,0.53v8.3c0,0.29 0.24,0.53 0.53,0.53h12.8c0.29,0 0.53,-0.24 0.53,-0.53zM10.1287,10.22c0.2,0 0.37,0.1 0.47,0.27c0.09,0.16 0.09,0.36 0,0.53c-0.1,0.16 -0.27,0.27 -0.47,0.27h-1.6v1.87c0,0.3 -0.23,0.54 -0.53,0.54c-0.29,0 -0.53,-0.24 -0.53,-0.54v-1.86h-1.6c-0.3,0 -0.54,-0.24 -0.54,-0.54c0,-0.29 0.24,-0.53 0.54,-0.53h1.6v-0.63h-1.25c-0.29,0 -0.53,-0.24 -0.53,-0.53c0,-0.3 0.24,-0.54 0.53,-0.54h0.52l-0.78,-0.8c-0.2,-0.21 -0.2,-0.55 0.01,-0.75c0.22,-0.21 0.56,-0.21 0.76,0.01l1.27,1.3l1.26,-1.29c0.13,-0.14 0.33,-0.2 0.52,-0.15c0.18,0.05 0.33,0.19 0.38,0.37c0.05,0.19 0,0.39 -0.13,0.52l-0.77,0.79h0.52c0.3,0 0.54,0.24 0.54,0.54c0,0.29 -0.24,0.53 -0.54,0.53h-1.25v0.62z"></path></g></g><defs><rect id="path_0" x="0" y="0" width="16" height="16" /></defs></svg>