<?xml version="1.0" encoding="utf-8"?>
<!-- Generator: Adobe Illustrator 26.0.0, SVG Export Plug-In . SVG Version: 6.00 Build 0)  -->
<svg version="1.1" id="图层_1" xmlns="http://www.w3.org/2000/svg" xmlns:xlink="http://www.w3.org/1999/xlink" x="0px" y="0px"
	 viewBox="0 0 39.7 39.7" style="enable-background:new 0 0 39.7 39.7;" xml:space="preserve">
<style type="text/css">
	.st0{fill:#AAAAAA;}
</style>
<g>
	<g>
		<path class="st0" d="M25.7,21.4l1.4-1.7l-0.2-0.3l-0.2-0.4c-0.1-0.3-0.3-0.6-0.4-0.8c-0.2-0.3-0.4-0.7-0.7-1L25.3,17l-2.1,0.2
			c-0.3,0-0.7-0.2-0.8-0.5l-0.7-1.9l-0.4-0.1c-1-0.3-2.1-0.3-3.2,0h-0.3l-0.8,2.1c-0.1,0.2-0.3,0.4-0.7,0.4h-0.1l-2.1-0.3l-0.3,0.3
			c-0.5,0.7-1,1.5-1.3,2.3l-0.1,0.3l1.4,1.6c0.2,0.3,0.2,0.6,0,0.8l-1.5,1.6l0.2,0.4c0.1,0.4,0.3,0.9,0.5,1.3
			c0.2,0.3,0.4,0.7,0.7,0.9l0.3,0.3l2.2-0.3c0.3,0,0.5,0.2,0.7,0.4l0.7,2l0.4,0.1c1,0.2,2.2,0.2,3.3,0l0.3-0.1l0.8-2.1
			c0.1-0.3,0.3-0.4,0.7-0.4l2.1,0.4l0.3-0.3c0.5-0.6,0.9-1.4,1.3-2.2l0.2-0.3l-1.4-1.6C25.5,21.9,25.5,21.6,25.7,21.4z M19.8,24.9
			c-1.7,0-3.1-1.4-3.1-3c0-1.7,1.4-3.1,3.1-3.1c1.6,0,3,1.4,3,3.1C22.8,23.5,21.5,24.9,19.8,24.9z"/>
	</g>
	<g>
		<path class="st0" d="M36.3,24.5c0.1-0.9,0.2-1.8,0.2-2.7c0-7.5-4.9-13.8-11.7-16c-0.2-2.6-2.5-4.7-5.2-4.7s-4.9,2.1-5.1,4.7
			C7.9,8,3,14.3,3,21.8c0,0.9,0.1,1.7,0.2,2.5c-1.5,0.9-2.4,2.5-2.4,4.4c0,2.9,2.3,5.2,5.2,5.2c0.6,0,1.3-0.1,1.8-0.3
			c3.1,3.1,7.3,5.1,12,5.1c4.6,0,8.8-1.9,11.9-4.9c0.7,0.3,1.4,0.5,2.2,0.5c2.8,0,5.2-2.3,5.2-5.2C39,27.1,37.9,25.4,36.3,24.5z
			 M17.3,5.2c0.4-0.9,1.3-1.6,2.4-1.6s2,0.6,2.4,1.6c0.2,0.3,0.2,0.7,0.2,1.1c0,0.5-0.1,1-0.4,1.4c-0.5,0.7-1.3,1.2-2.2,1.2
			S18,8.4,17.5,7.7c-0.3-0.4-0.4-0.9-0.4-1.4C17.1,5.9,17.2,5.5,17.3,5.2z M5.9,31.4L5.9,31.4c-1.5,0-2.7-1.2-2.7-2.7
			c0-0.6,0.2-1.2,0.6-1.6c0.5-0.6,1.2-1,2.1-1C6,26,6,26,6.1,26c1.4,0.1,2.5,1.2,2.5,2.6c0,0.5-0.1,1-0.4,1.4
			C7.7,30.8,6.9,31.3,5.9,31.4z M29.7,32.1c-2.6,2.5-6.1,4-9.9,4c-3.9,0-7.4-1.5-10-4.1c0.8-0.9,1.3-2.1,1.3-3.4
			c0-2.8-2.3-5.2-5.2-5.2c-0.1,0-0.2,0-0.3,0c-0.1-0.6-0.1-1.1-0.1-1.7c0-6.2,4-11.5,9.6-13.5c0.8,1.8,2.6,3.1,4.7,3.1
			s3.9-1.3,4.7-3.1c5.6,2,9.6,7.3,9.6,13.5c0,0.7,0,1.4-0.1,2c0,0-0.1,0-0.1,0c-2.8,0-5.2,2.3-5.2,5.2C28.6,30.2,29,31.2,29.7,32.1z
			 M33.8,31.7c-0.2,0-0.3,0-0.4,0c-0.9-0.2-1.6-0.7-2-1.5c-0.2-0.3-0.2-0.7-0.2-1.1c0-1.3,0.9-2.4,2.1-2.6c0.2,0,0.3,0,0.5,0
			c0.7,0,1.4,0.3,1.9,0.8c0.5,0.5,0.8,1.1,0.8,1.9C36.5,30.5,35.3,31.7,33.8,31.7z"/>
	</g>
</g>
</svg>
