<svg xmlns="http://www.w3.org/2000/svg" xmlns:xlink="http://www.w3.org/1999/xlink" width="23.994873046875" height="24" viewBox="0 0 23.994873046875 24" fill="none"><g opacity="1"  transform="translate(0 0)  rotate(0)"><g opacity="1"  transform="translate(0 0)  rotate(0)"><g opacity="1"  transform="translate(0 0)  rotate(0)"></g><path id="分组 1" fill-rule="evenodd" style="fill:#1569AC" opacity="1" d="M1.08,21.83h20.2c0.6,0 1.08,0.49 1.08,1.08c0,0.6 -0.5,1.09 -1.08,1.09h-20.2c-0.59,0 -1.08,-0.49 -1.08,-1.09c0,-0.59 0.49,-1.08 1.08,-1.08zM5.23001,5.57c0,-1.48 0.63,-2.9 1.78,-3.94c1.14,-1.05 2.67001,-1.63 4.28999,-1.63c1.6,0 3.1,0.59 4.24,1.64c0.57,0.52 1,1.12 1.31,1.77c0.31,0.7 0.48,1.42 0.48,2.16c0,1.95 -1.07,3.75 -2.79,4.72l0.51,3.01l-1.28,1.77c-0.42,-0.3 -0.71,-0.75 -0.78,-1.28l-0.66,-3.33v-0.01c-0.12,-0.75 0.28,-1.49 0.96,-1.86c1.16,-0.61 1.85,-1.74 1.85,-3.02c0,-1.93 -1.73,-3.51 -3.84,-3.51c-2.11999,0 -3.83999,1.59 -3.83999,3.56c0,1.27 0.69,2.41 1.84,3.02c0.70999,0.37 1.07999,1.06 0.96999,1.81l-0.01,0.01l-0.65998,3.33c-0.12001,0.92 -0.93001,1.64 -1.88001,1.64h-5.16001v2.78h9.02l0.66,2.06h-9.9c-1.04,0 -1.93,-0.83 -1.93,-1.81v-3.33c0,-0.49 0.21,-0.96 0.56,-1.29c0.36,-0.34 0.86,-0.52 1.37,-0.52h5.16001l0.52,-3.03c-1.73,-0.98 -2.79,-2.77 -2.79,-4.72zM21.94,16.65v1.82c0,0.49 -0.2,0.94 -0.56,1.28c-0.36,0.35 -0.84,0.53 -1.36,0.53h-0.69zM19.57,9.01c0.45,-0.62 1.36,-0.74 2.02,-0.27l1.76,1.28c0.67,0.47 0.84,1.38 0.4,1.99l-5.15,7.15l-0.03,0.04l-1.04,1.43l-3.41,0.35l-0.76,-3.35l1.03,-1.44c0.01,-0.01 0.02,-0.02 0.02,-0.04zM15.55,18.99l0.89,-0.09l0.58,-0.81l0.02,-0.02l0.02,-0.02v-0.01l4.91,-6.82l-1.09,-0.77l-4.9,6.81h-0.01l-0.02,0.03l-0.01,0.02l-0.59,0.82z"></path></g></g></svg>