<svg xmlns="http://www.w3.org/2000/svg" xmlns:xlink="http://www.w3.org/1999/xlink" width="24" height="24" viewBox="0 0 24 24" fill="none"><g opacity="1"  transform="translate(0 0)  rotate(0)"><g opacity="1"  transform="translate(0 0)  rotate(0)"><g opacity="1"  transform="translate(0 0)  rotate(0)"></g><path id="分组 1" fill-rule="evenodd" style="fill:#1EA187" opacity="1" d="M24,21.7c0,1.28 -1.08,2.3 -2.3,2.3h-19.4c-1.28,0 -2.3,-1.02 -2.3,-2.3v-19.4c0,-1.28 1.02,-2.3 2.3,-2.3h19.4c1.28,0 2.3,1.02 2.3,2.3zM21.44,2.55h-18.89v18.89h18.89z"></path><path id="路径 3" fill-rule="evenodd" style="fill:#1EA187" opacity="1" d="M1.63354,7.92083v-2.55999h20.72996v2.55999z"></path><path id="分组 2" fill-rule="evenodd" style="fill:#1EA187" opacity="1" d="M5.46265,6.33456v-5.16h2.05002v5.16zM10.9727,6.33456v-5.16h2.05v5.16zM16.3927,6.33456v-5.16h2.0401v5.16zM10.1627,10.2146l6.5401,3.77c0.55,0.31 0.55,1.08 0,1.44l-6.5401,3.7699c-0.57001,0.31 -1.23002,-0.1 -1.23002,-0.7099v-7.56c0,-0.62 0.66001,-1.02004 1.23002,-0.71z"></path></g></g></svg>