<svg xmlns="http://www.w3.org/2000/svg" xmlns:xlink="http://www.w3.org/1999/xlink" width="16" height="16" viewBox="0 0 16 16" fill="none"><g opacity="1"  transform="translate(0 0)  rotate(0)"><path id="矩形 1" fill-rule="evenodd" style="fill:#CCCCCC" opacity="0" d="M0 16L16 16L16 0L0 0L0 16Z"></path><path id="路径 1" fill-rule="evenodd" style="fill:#555555" opacity="1" d="M14.9623,13.06c0.38,0.88 0.58,1.81 0.6,2.78c0,0.04 -0.02,0.08 -0.05,0.11c-0.03,0.03 -0.07,0.05 -0.12,0.05h-1.2c-0.09,0 -0.16,-0.07 -0.16,-0.16c-0.04,-1.55 -0.67,-3 -1.77,-4.1c-1.14,-1.14 -2.64997,-1.77 -4.25996,-1.77c-1.60999,0 -3.12998,0.63 -4.26997,1.77c-1.1,1.1 -1.72,2.55 -1.76,4.1c0,0.09 -0.07,0.16 -0.15999,0.16h-1.21c-0.04,0 -0.08,-0.02 -0.11,-0.05c-0.03,-0.03 -0.05,-0.07 -0.05,-0.11c0.02,-0.96 0.22,-1.9 0.59,-2.78c0.38,-0.9 0.92999,-1.71 1.61999,-2.4c0.7,-0.7 1.49999,-1.24 2.40999,-1.62c0,-0.01 0.01,-0.01 0.02,-0.01c-1.25,-0.91 -2.06999,-2.38 -2.06999,-4.05c0,-2.75 2.22999,-4.98 4.98997,-4.98c2.74996,0 4.97996,2.23 4.97996,4.98c0,1.67 -0.81,3.14 -2.06,4.05c0,0 0.01,0 0.02,0.01c0.9,0.38 1.71,0.93 2.4,1.62c0.69,0.68 1.24,1.5 1.62,2.4zM10.4423,7.43c0.66,-0.65 1.02,-1.52 1.02,-2.45c0,-0.92 -0.36,-1.79 -1.02,-2.44c-0.64997,-0.65 -1.51996,-1.01 -2.43996,-1.01c-0.91999,0 -1.78999,0.36 -2.44998,1.01c-0.65,0.65 -1.01,1.52 -1.01,2.44c0,0.93 0.36,1.8 1.01,2.45c0.65999,0.65 1.52999,1.01 2.44998,1.01c0.92,0 1.78999,-0.36 2.43996,-1.01z"></path></g></svg>