<svg xmlns="http://www.w3.org/2000/svg" xmlns:xlink="http://www.w3.org/1999/xlink" width="16" height="17.211181640625" viewBox="0 0 16 17.211181640625" fill="none"><g opacity="1"  transform="translate(0 0)  rotate(0)"><path id="矩形 4" fill-rule="evenodd" style="fill:#CCCCCC" opacity="0" d="M0 16.6064L16 16.6064L16 0.606445L0 0.606445L0 16.6064Z"></path><path id="路径 1" fill-rule="evenodd" style="fill:#FFFFFF" opacity="0.6" d="M15.53,5.95c0.3,0.26 0.47,0.62 0.47,1v8.89c0,0.74 -0.62,1.34 -1.39,1.37h-13.22c-0.77,-0.03 -1.39,-0.63 -1.39,-1.37v-8.88c0,-0.38 0.17,-0.75 0.47,-1l6.62,-5.62c0.53,-0.45 1.32,-0.45 1.84,0zM8.01,1.33l-6.62,5.62v8.89h13.22v-8.89zM8.59,10.47v0v4.27h-1.18v-4.27c0,-0.37 0.27,-0.66 0.59,-0.66c0.33,0 0.59,0.29 0.59,0.66z"></path></g></svg>