<svg xmlns="http://www.w3.org/2000/svg" xmlns:xlink="http://www.w3.org/1999/xlink" width="11.969970703125" height="12.8299560546875" viewBox="0 0 11.969970703125 12.8299560546875" fill="none"><path id="分组 2" fill-rule="evenodd" style="fill:#F62B2B" opacity="1" d="M10.15,0.97h-8.95c-0.14,-0.01 -0.26,0.1 -0.24,0.24v10.4c-0.02,0.15 0.1,0.25 0.24,0.25h1.94999c0.35,0 0.62999,0.11 0.62999,0.46c0,0.35 -0.27999,0.51 -0.62999,0.51h-1.89c-0.68999,0 -1.25999,-0.57 -1.25999,-1.28v-10.27c0,-0.71 0.57,-1.28 1.25999,-1.28h8.82001c0.7,0 1.26,0.57 1.23,1.28v2.6c0.03,0.35 -0.12,0.65 -0.47,0.65c-0.35,0 -0.45,-0.3 -0.48,-0.65v-2.67c0.03,-0.14 -0.07,-0.25 -0.21,-0.24zM3.14999,2.55h1.25999c0.35,0 0.63,0.21 0.63,0.48c0,0.26 -0.28,0.48 -0.63,0.47h-1.25999c-0.34,0.01 -0.63,-0.21 -0.63,-0.47c0,-0.27 0.29,-0.48 0.63,-0.48zM8.18997,12.83c-2.08999,0 -3.77999,-1.73 -3.77999,-3.85c0,-2.12 1.69,-3.85 3.77999,-3.85c2.09003,0 3.78003,1.73 3.78003,3.85c0,2.12 -1.69,3.85 -3.78003,3.85zM5.35998,8.99c0,1.58 1.26999,2.88 2.82999,2.88c1.55999,0 2.84003,-1.3 2.84003,-2.88c0,-1.6 -1.28004,-2.9 -2.84003,-2.9c-1.56,0 -2.82999,1.3 -2.82999,2.9zM9.62996,9.8l0.18,0.17c0.08,0.1 0.14,0.17 0.17,0.24c0.04004,0.07 0.04004,0.15 -0.01,0.24c-0.01,0.01 -0.03,0.04 -0.05,0.06l-0.07,0.07c-0.01,0.02 -0.03,0.05 -0.05,0.06c-0.03,0.02 -0.04,0.03 -0.06,0.04c-0.07,0.04 -0.15,0.05 -0.25,0.04c-0.09,-0.02 -0.18,-0.07 -0.25,-0.15l-0.18,-0.18l-0.24,-0.23l-0.26999,-0.28l-0.32,-0.3l-0.53,0.53l-0.41,0.41c-0.11,0.12 -0.21,0.18 -0.32,0.2c-0.1,0.03 -0.19,0 -0.28,-0.07l-0.03,-0.02l-0.09,-0.1c-0.02,-0.02 -0.03,-0.03 -0.03,-0.03c-0.03,-0.05 -0.04,-0.08 -0.06,-0.12c0,-0.05 0,-0.08 0.02,-0.13c0.01,-0.03 0.03,-0.07 0.05,-0.11c0.03,-0.04 0.06,-0.07 0.09,-0.1c0.02,-0.02 0.07,-0.07 0.14,-0.13l0.22,-0.23c0.09,-0.09 0.2,-0.2 0.31,-0.3l0.36,-0.36c-0.14,-0.13 -0.27,-0.26 -0.39,-0.39c-0.12,-0.12 -0.22,-0.23 -0.33,-0.33l-0.23,-0.23c-0.07,-0.06 -0.11,-0.09 -0.12,-0.1c-0.07,-0.09 -0.1,-0.16 -0.12,-0.23c0,-0.07 0.03,-0.14 0.09,-0.22c0.02,-0.02 0.04,-0.06 0.09,-0.09c0.05,-0.04 0.07,-0.07 0.09,-0.08c0.08,-0.05 0.15,-0.08 0.22,-0.07c0.07,0.01 0.14,0.04 0.21,0.11l0.13,0.13c0.06,0.07 0.14,0.15 0.23,0.25c0.11,0.09 0.21,0.2 0.33,0.31c0.12,0.12 0.25,0.24 0.37,0.36l0.32,-0.31c0.1,-0.11 0.19999,-0.2 0.29,-0.28c0.08,-0.09 0.15999,-0.18 0.22999,-0.25c0.09,-0.07 0.14,-0.12 0.19,-0.17c0.07,-0.07 0.14,-0.11 0.22,-0.13c0.07,-0.02 0.15,0 0.22,0.05c0,0.01 0.02,0.01 0.04,0.02l0.05,0.05l0.03,0.03c0.02,0.01 0.02,0.03 0.04,0.03c0.07,0.07 0.11,0.15 0.1,0.23c0,0.09 -0.03,0.17 -0.1,0.24l-0.45,0.45c-0.08,0.08 -0.18,0.17 -0.28,0.28l-0.32,0.32c0.1,0.1 0.21,0.2 0.3,0.3c0.1,0.1 0.2,0.18 0.28,0.28c0.09,0.08 0.16,0.15 0.23,0.22z"></path></svg>