<svg xmlns="http://www.w3.org/2000/svg" xmlns:xlink="http://www.w3.org/1999/xlink" width="15.243972778320312" height="16" viewBox="0 0 15.243972778320312 16" fill="none"><g opacity="1"  transform="translate(0 0)  rotate(0)"><path id="矩形 1" fill-rule="evenodd" style="fill:#CCCCCC" opacity="0" d="M0.621994 15L14.622 15L14.622 1L0.621994 1L0.621994 15Z"></path><path id="路径 1 (轮廓)" fill-rule="evenodd" style="fill:#FFFFFF" opacity="1" d="M12.05,0.13l2.63,1.73c0.18,0.1 0.32,0.24 0.42,0.42c0.1,0.17 0.14,0.35 0.14,0.56v4.57c0,0.1 -0.01,0.2 -0.04,0.3c-0.03,0.1 -0.07,0.19 -0.12,0.28c-0.1,0.15 -0.22,0.29 -0.39,0.39l-0.01,0.01l-1.96,1.12v5.3c0,0.16 -0.03,0.31 -0.09,0.45c-0.06,0.14 -0.14,0.26 -0.25,0.37c-0.1,0.11 -0.23,0.19 -0.36,0.25c-0.15,0.06 -0.3,0.09 -0.46,0.09h-2.12c-0.16,0 -0.31,-0.03 -0.46,-0.09c-0.13,-0.06 -0.26,-0.14 -0.36,-0.25c-0.11,-0.11 -0.19,-0.23 -0.25,-0.37c-0.06,-0.14 -0.09,-0.29 -0.09,-0.45v-5.33l-1.93,-1.1c-0.09,-0.05 -0.17,-0.11 -0.25,-0.18c-0.07,-0.07 -0.13,-0.15 -0.18,-0.24c-0.05,-0.09 -0.09,-0.18 -0.12,-0.28c-0.03,-0.1 -0.04,-0.2 -0.04,-0.3v-4.54c0,-0.1 0.01,-0.2 0.04,-0.3c0.03,-0.1 0.07,-0.19 0.12,-0.28c0.1,-0.15 0.23,-0.29 0.39,-0.4l2.65,-1.74l0.02,-0.01c0.07,-0.03 0.14,-0.06 0.21,-0.08c0.08,-0.02 0.15,-0.03 0.23,-0.03c0.07,0 0.15,0.01 0.22,0.03c0.07,0.02 0.13,0.05 0.2,0.09c0.06,0.04 0.11,0.08 0.16,0.14c0.05,0.05 0.1,0.11 0.13,0.17c0.08,0.13 0.11,0.27 0.11,0.43v2.68h0.52v-2.68c0,-0.08 0.01,-0.16 0.03,-0.24c0.02,-0.07 0.05,-0.14 0.09,-0.21c0.04,-0.06 0.09,-0.12 0.14,-0.17c0.05,-0.05 0.11,-0.09 0.17,-0.12c0.06,-0.04 0.12,-0.07 0.19,-0.09c0.07,-0.02 0.14,-0.03 0.22,-0.03c0.08,0 0.15,0.01 0.23,0.03c0.08,0.02 0.15,0.06 0.22,0.1zM4.45,9.56h0.01c0.16,0 0.31,0.03 0.45,0.09c0.14,0.06 0.27,0.15 0.37,0.26c0.11,0.11 0.19,0.23 0.25,0.38c0.06,0.14 0.09,0.3 0.09,0.46v4.09c0,0.16 -0.03,0.31 -0.09,0.45c-0.06,0.14 -0.14,0.26 -0.25,0.37c-0.11,0.11 -0.23,0.19 -0.37,0.25c-0.14,0.06 -0.29,0.09 -0.45,0.09h-3.3c-0.16,0 -0.31,-0.03 -0.45,-0.09c-0.14,-0.06 -0.26,-0.14 -0.37,-0.25c-0.11,-0.11 -0.19,-0.23 -0.25,-0.37c-0.06,-0.14 -0.09,-0.29 -0.09,-0.45v-4.09c0,-0.16 0.03,-0.31 0.09,-0.45c0.06,-0.14 0.14,-0.27 0.25,-0.37c0.11,-0.11 0.23,-0.19 0.37,-0.25c0.13,-0.06 0.28,-0.09 0.42,-0.09v-3.49c-0.06,-0.02 -0.12,-0.05 -0.18,-0.08c-0.13,-0.06 -0.24,-0.14 -0.35,-0.25l-0.03,-0.03l-0.02,-0.03c-0.09,-0.12 -0.16,-0.26 -0.2,-0.41c-0.05,-0.17 -0.06,-0.33 -0.03,-0.5l0.57,-3.47v-0.01c0.03,-0.13 0.08,-0.26 0.14,-0.38c0.07,-0.11 0.16,-0.22 0.26,-0.3c0.1,-0.09 0.22,-0.16 0.34,-0.21c0.13,-0.05 0.27,-0.07 0.41,-0.07h1.51c0.14,0 0.27,0.02 0.4,0.07c0.13,0.05 0.25,0.12 0.35,0.21c0.1,0.08 0.19,0.19 0.25,0.3c0.07,0.12 0.12,0.25 0.15,0.38v0.01l0.57,3.47c0.02,0.17 0.02,0.33 -0.01,0.48c-0.02,0.09 -0.06,0.17 -0.1,0.25c-0.04,0.09 -0.1,0.17 -0.17,0.24c-0.11,0.11 -0.22,0.19 -0.35,0.25c-0.06,0.03 -0.12,0.06 -0.19,0.08zM11.82,4.6h-2.64v-3.36l-2.29,1.51c-0.03,0.02 -0.05,0.04 -0.06,0.06c-0.01,0.01 -0.01,0.02 -0.01,0.03v4.54c0,0.01 0,0.03 0.01,0.05l0.01,0.01l0.01,0.01l2.49,1.41v5.95c0,0.03 0.01,0.05 0.03,0.07c0.02,0.02 0.04,0.03 0.07,0.03h2.12c0.03,0 0.06,-0.01 0.08,-0.03c0.02,-0.02 0.03,-0.04 0.03,-0.07v-5.91l2.45,-1.41c0.02,-0.01 0.04,-0.03 0.06,-0.05c0,-0.01 0.01,-0.02 0.01,-0.03v-4.57c0,-0.02 -0.01,-0.03 -0.01,-0.04c0,0 0,-0.01 -0.01,-0.01c-0.01,-0.01 -0.02,-0.02 -0.03,-0.02l-0.02,-0.01l-2.3,-1.52zM4.14,5.08c0.01,0 0.02,0 0.03,0c0.02,-0.01 0.03,-0.03 0.06,-0.04c0,-0.02 0,-0.04 -0.01,-0.07l-0.56,-3.45c-0.01,-0.03 -0.03,-0.06 -0.05,-0.08c-0.02,-0.02 -0.04,-0.02 -0.06,-0.02h-1.51c-0.03,0 -0.05,0 -0.06,0.02c-0.03,0.02 -0.04,0.05 -0.05,0.08l-0.56,3.45c-0.01,0.02 -0.01,0.04 0,0.05c0,0.01 0.01,0.02 0.01,0.03c0.01,0.01 0.03,0.02 0.04,0.03c0.01,0 0.02,0 0.02,0h0.75v5.57h-1.03c-0.03,0 -0.05,0.01 -0.07,0.03c-0.02,0.02 -0.03,0.04 -0.03,0.07v4.09c0,0.03 0.01,0.05 0.03,0.07c0.02,0.02 0.04,0.03 0.07,0.03h3.3c0.03,0 0.05,-0.01 0.07,-0.03c0.02,-0.02 0.03,-0.04 0.03,-0.07v-4.09c0,-0.05 -0.01,-0.08 -0.04,-0.11c-0.01,-0.02 -0.04,-0.03 -0.06,-0.03h-1.06v-5.53z"></path></g></svg>