<svg xmlns="http://www.w3.org/2000/svg" xmlns:xlink="http://www.w3.org/1999/xlink" width="16.005001068115234" height="15.999298095703125" viewBox="0 0 16.005001068115234 15.999298095703125" fill="none"><path id="并集" fill-rule="evenodd" style="fill:#000000" opacity="1" d="M15.8325,7.61c0.23,0.23 0.23,0.59 0,0.81c-0.11,0.11 -0.26,0.17 -0.4,0.17c-0.15,0 -0.29,-0.06 -0.41,-0.17l-7.02,-7.04l-7.02,7.04c-0.23,0.22 -0.59,0.23 -0.81,0c-0.23,-0.22 -0.23,-0.58 0,-0.81l7.43,-7.44c0.1,-0.11 0.25,-0.17 0.4,-0.17c0.15,0 0.3,0.06 0.4,0.17zM6.4881,9.2348h-1.55c-0.49,0 -0.9,-0.41 -0.9,-0.91v-1.55c0,-0.49 0.41,-0.9 0.9,-0.9h1.55c0.5,0 0.91,0.41 0.91,0.9v1.55c0,0.5 -0.41,0.91 -0.91,0.91zM6.3281,8.1648v-1.22h-1.22v1.22zM14.2868,9.1593v6.27c0,0.31 -0.25,0.57 -0.57,0.57h-11.43c-0.31,0 -0.57,-0.26 -0.57,-0.57v-6.27c0,-0.31 0.26,-0.57 0.57,-0.57c0.32,0 0.57,0.26 0.57,0.57v5.7h10.29v-5.7c0,-0.31 0.25,-0.57 0.57,-0.57c0.32,0 0.57,0.26 0.57,0.57zM6.4881,13.7148h-1.55c-0.49,0 -0.9,-0.41 -0.9,-0.91v-1.54c0,-0.5 0.41,-0.91 0.9,-0.91h1.55c0.5,0 0.91,0.41 0.91,0.91v1.54c0,0.5 -0.41,0.91 -0.91,0.91zM11.0581,13.7148h-1.54c-0.5,0 -0.91,-0.41 -0.91,-0.91v-1.54c0,-0.5 0.41,-0.91 0.91,-0.91h1.54c0.5,0 0.91,0.41 0.91,0.91v1.54c0,0.5 -0.41,0.91 -0.91,0.91zM6.3281,12.6448v-1.22h-1.22v1.22zM10.8981,12.6448v-1.22h-1.22v1.22z"></path></svg>