<svg xmlns="http://www.w3.org/2000/svg" xmlns:xlink="http://www.w3.org/1999/xlink" width="15.997501373291016" height="14.92486572265625" viewBox="0 0 15.997501373291016 14.92486572265625" fill="none"><path id="路径 1" fill-rule="evenodd" style="fill:#000000" opacity="1" d="M7.15,0.11079l0.11,0.06l5.37,3.1c0.36,0.21 0.59,0.57 0.63,0.98v0.11l0.02,1.54c0,0.28 -0.22,0.52 -0.51,0.54c-0.29,0.02 -0.54,-0.18 -0.57,-0.47l-0.01,-0.07l-0.01,-0.98l-5.01,2.86v5.78001l0.59,-0.34c0.25,-0.15 0.56,-0.08 0.72,0.16c0.16,0.24 0.11,0.56 -0.12,0.73l-0.06,0.04l-1.04,0.6c-0.35,0.21 -0.78,0.23 -1.15,0.06l-0.11,-0.06l-5.37,-3.1c-0.36,-0.2 -0.59,-0.57 -0.63,-0.98v-0.11v-6.20001c0,-0.41 0.2,-0.8 0.54,-1.03l0.09,-0.06l5.37,-3.1c0.35,-0.2 0.78,-0.23 1.15,-0.06zM13.72,7.47079c0.28,0 0.54,0.15 0.68,0.39l1.5,2.60001c0.13,0.24 0.13,0.54 0,0.78l-1.5,2.6c-0.14,0.24 -0.4,0.39 -0.68,0.39h-3c-0.28,0 -0.54,-0.15 -0.68,-0.39l-1.5,-2.6c-0.13,-0.24 -0.13,-0.54 0,-0.78l1.5,-2.60001c0.14,-0.24 0.4,-0.39 0.68,-0.39zM1.08,10.5608c0,0.05 0.02,0.09 0.05,0.13l0.04,0.03l4.92,2.84v-5.78001l-5.01,-2.85zM10.95,8.64079l-1.28,2.21001l1.28,2.21h2.54l1.28,-2.21l-1.28,-2.21001zM12.22,10.0008c0.47,0 0.85,0.38 0.85,0.84c0,0.47 -0.38,0.85 -0.85,0.85c-0.47,0 -0.85,-0.38 -0.85,-0.85c0,-0.46 0.38,-0.84 0.85,-0.84zM2.78,6.79079l0.06,0.03l2.27,1.26c0.25,0.13 0.35,0.44 0.23,0.7c-0.12,0.26 -0.43,0.38 -0.69,0.27l-0.07,-0.03l-2.26,-1.26c-0.25,-0.13 -0.35,-0.44 -0.23,-0.7c0.12,-0.26 0.42,-0.38 0.69,-0.27zM6.54,1.11079l-4.96,2.86l5.05,2.87l5.05,-2.87l-4.96,-2.86c-0.04,-0.03 -0.09,-0.03 -0.14,-0.02v0z"></path></svg>