<svg xmlns="http://www.w3.org/2000/svg" xmlns:xlink="http://www.w3.org/1999/xlink" width="16" height="16" viewBox="0 0 16 16" fill="none"><path id="路径 1" fill-rule="evenodd" style="fill:#000000" opacity="0.6" d="M7.48,2.42v5.06h-5.06c-1.33,0 -2.42,-1.09 -2.42,-2.42v-2.64c0,-1.33 1.09,-2.42 2.42,-2.42h2.64c1.33,0 2.42,1.09 2.42,2.42zM2.42,1.12c-0.72,0 -1.3,0.58 -1.3,1.3v2.64c0,0.72 0.58,1.3 1.3,1.3h3.94v-3.94c0,-0.72 -0.58,-1.3 -1.3,-1.3zM16,5.06c0,1.34 -1.09,2.42 -2.42,2.42h-5.06v-5.06c0,-1.33 1.09,-2.42 2.42,-2.42h2.64c1.33,0 2.42,1.09 2.42,2.42v2.64zM9.63,6.36h3.95c0.71,0 1.3,-0.58 1.3,-1.3v-2.64c0,-0.72 -0.59,-1.3 -1.3,-1.3h-2.64c-0.72,0 -1.31,0.58 -1.31,1.3zM7.48,13.58c0,1.33 -1.08,2.42 -2.42,2.42h-2.64c-1.33,0 -2.42,-1.09 -2.42,-2.42v-2.64c0,-1.33 1.09,-2.42 2.42,-2.42h5.06zM2.42,9.63c-0.72,0 -1.3,0.59 -1.3,1.31v2.64c0,0.71 0.58,1.3 1.3,1.3h2.64c0.72,0 1.3,-0.59 1.3,-1.3v-3.95zM16,13.58c0,1.33 -1.09,2.42 -2.42,2.42h-2.64c-1.33,0 -2.42,-1.09 -2.42,-2.42v-5.06h5.06c1.33,0 2.42,1.09 2.42,2.42zM9.63,9.63v3.95c0,0.71 0.59,1.3 1.31,1.3h2.64c0.71,0 1.3,-0.59 1.3,-1.3v-2.64c0,-0.72 -0.59,-1.31 -1.3,-1.31z"></path></svg>