      <svg version="1.1" fill="#FFFFFF" xmlns="http://www.w3.org/2000/svg" xmlns:xlink="http://www.w3.org/1999/xlink"
        x="0px" y="0px" viewBox="0 0 39.69 39.69" style="enable-background: new 0 0 39.69 39.69" xml:space="preserve">
        <g transform="matrix(1 0 0 1 -87 -387 )">
          <path d="M112.49,421.02c0,3.13-2.53,5.67-5.65,5.67c-3.12,0-5.65-2.54-5.65-5.67c0-0.68,0.47-1.63,1.41-2.83h8.48
                  C112.02,419.39,112.49,420.33,112.49,421.02z M106.84,423.85c1.56,0,2.83-1.27,2.83-2.83s-1.26-2.83-2.83-2.83
                  c-1.56,0-2.83,1.27-2.83,2.83S105.28,423.85,106.84,423.85z M95.54,404.01v14.17h22.6v-14.17c0-6.26-5.06-11.34-11.3-11.34
                  C100.6,392.67,95.54,397.75,95.54,404.01z M120.97,404.01v14.17h1.41c0.78,0,1.41,0.63,1.41,1.42c0,0.78-0.63,1.42-1.41,1.42H91.3
                  c-0.78,0-1.41-0.63-1.41-1.42c0-0.78,0.63-1.42,1.41-1.42h1.41v-14.17c0-7.28,5.5-13.37,12.71-14.1v-1.49
                  c0-0.78,0.63-1.42,1.41-1.42s1.41,0.63,1.41,1.42v1.49C115.47,390.63,120.97,396.73,120.97,404.01z" />
        </g>
      </svg>