<svg xmlns="http://www.w3.org/2000/svg" xmlns:xlink="http://www.w3.org/1999/xlink" width="16.0001220703125" height="16" viewBox="0 0 16.0001220703125 16" fill="none"><g opacity="1"  transform="translate(0 0)  rotate(0)"><path id="矩形 1" fill-rule="evenodd" style="fill:#CCCCCC" opacity="0" d="M0 16L16 16L16 0L0 0L0 16Z"></path><g opacity="1"  transform="translate(1 2.5)  rotate(0)"><path id="路径 1" fill-rule="evenodd" style="fill:#555555" opacity="1" d="M0,0.5c0,-0.3 0.2,-0.5 0.5,-0.5h13c0.3,0 0.5,0.2 0.5,0.5c0,0.3 -0.2,0.5 -0.5,0.5h-13c-0.3,0 -0.5,-0.2 -0.5,-0.5zM0,10.5c0,-0.3 0.2,-0.5 0.5,-0.5h7c0.3,0 0.5,0.2 0.5,0.5c0,0.3 -0.2,0.5 -0.5,0.5h-7c-0.3,0 -0.5,-0.2 -0.5,-0.5zM0,5.5c0,-0.3 0.2,-0.5 0.5,-0.5h4c0.3,0 0.5,0.2 0.5,0.5c0,0.3 -0.2,0.5 -0.5,0.5h-4c-0.3,0 -0.5,-0.2 -0.5,-0.5z"></path><path id="路径" fill-rule="evenodd" style="fill:#555555" opacity="1" d="M6.59012 6.4491C6.75012 6.2991 7.01012 6.3091 7.16012 6.4691L9.83012 9.2391L9.83012 2.4991C9.83012 2.2891 10.0101 2.1091 10.2301 2.1091C10.4501 2.1091 10.6401 2.2891 10.6401 2.4991L10.6401 9.2391L13.3001 6.4691C13.4601 6.3091 13.7101 6.2991 13.8701 6.4491C14.0401 6.5991 14.0401 6.8491 13.8901 7.0091L10.6201 10.4091C10.5401 10.4991 10.4301 10.5491 10.3201 10.5691L10.2301 10.5791L10.1401 10.5691C10.0301 10.5491 9.93012 10.4991 9.84012 10.4091L6.58012 7.0091C6.42012 6.8491 6.43012 6.5991 6.59012 6.4491Z"></path></g></g></svg>