<svg xmlns="http://www.w3.org/2000/svg" xmlns:xlink="http://www.w3.org/1999/xlink" width="16" height="14.8900146484375" viewBox="0 0 16 14.8900146484375" fill="none"><path id="并集" fill-rule="evenodd" style="fill:#FFFFFF" opacity="0.6" d="M11.37,0.22c0.14,-0.14 0.33,-0.22 0.53,-0.22h2.98c0.27,0 0.51,0.14 0.65,0.38c0.13,0.23 0.13,0.52 0,0.75c-0.14,0.23 -0.38,0.38 -0.65,0.38h-2.66l-1.48,1.47l1.48,1.48h2.66c0.41,0 0.75,0.34 0.75,0.75c0,0.42 -0.34,0.75 -0.75,0.75h-2.98c-0.2,0 -0.39,-0.07 -0.53,-0.22l-2.01,-2h-5.01c-0.11,0.29 -0.27,0.56 -0.5,0.8l2.58,5.5h8.07c0.83,0 1.5,0.66 1.5,1.49v2.6c0,0.42 -0.34,0.76 -0.75,0.76h-14.13c-0.41,0 -0.75,-0.34 -0.75,-0.76v-2.6c0,-0.82 0.67,-1.49 1.5,-1.49h2.9l-2.27,-4.83c-0.64,0.07 -1.27,-0.13 -1.75,-0.55c-0.48,-0.43 -0.75,-1.04 -0.75,-1.68c0,-1.01 0.68,-1.89 1.65,-2.16c0.97,-0.26 2,0.15 2.52,1.02c0.07,0.13 0.13,0.26 0.18,0.39h5.01zM2.24,3.72c0.4,0 0.73,-0.33 0.73,-0.74c0,-0.4 -0.33,-0.73 -0.73,-0.73c-0.41,0 -0.73,0.33 -0.73,0.73c0,0.41 0.32,0.74 0.73,0.74zM1.88,13.38h12.61v-1.84h-12.61z"></path></svg>