<svg xmlns="http://www.w3.org/2000/svg" xmlns:xlink="http://www.w3.org/1999/xlink" width="16" height="16" viewBox="0 0 16 16" fill="none"><g opacity="1"  transform="translate(0 0)  rotate(0)"><mask id="bg-mask-0" fill="white"><use transform="translate(0 0)  rotate(NaN)" xlink:href="#path_0"></use></mask><g mask="url(#bg-mask-0)" ><g opacity="1"  transform="translate(0 0.00701904296875)  rotate(0)"><path id="路径 1" fill-rule="evenodd" style="fill:#FFFFFF" opacity="0.6" d="M4,3.69001l1.35,4.92h7.7l1.51,-4.92zM2.92,0l0.35,1.23l0.36,1.23h11.77c0.42,0 0.69,0.43 0.57,0.83l-1.87,6.12001c-0.1,0.26001 -0.31,0.43001 -0.57,0.43001h-7.78l-0.77,1.22998h9.78v1.23h-10.92c-0.34,0 -0.61,-0.28 -0.61,-0.62c0,-0.17 0.07,-0.34 0.2,-0.44l1,-1.59998c-0.06,-0.06 -0.11,-0.14001 -0.14,-0.23001l-1.92,-6.95001l-0.36,-1.23h-2.01v-1.23z"></path><path id="路径 2" fill-rule="evenodd" style="fill:#FFFFFF" opacity="0.6" d="M4.91907 15.9866C5.59907 15.9866 6.14907 15.4366 6.14907 14.7566C6.14907 14.0766 5.59907 13.5266 4.91907 13.5266C4.23907 13.5266 3.68907 14.0766 3.68907 14.7566C3.68907 15.4366 4.23907 15.9866 4.91907 15.9866Z"></path><path id="路径 3" fill-rule="evenodd" style="fill:#FFFFFF" opacity="0.6" d="M13.5269 15.9866C14.2069 15.9866 14.7569 15.4366 14.7569 14.7566C14.7569 14.0766 14.2069 13.5266 13.5269 13.5266C12.8469 13.5266 12.2969 14.0766 12.2969 14.7566C12.2969 15.4366 12.8469 15.9866 13.5269 15.9866Z"></path></g></g></g><defs><rect id="path_0" x="0" y="0" width="16" height="16" /></defs></svg>