<svg xmlns="http://www.w3.org/2000/svg" xmlns:xlink="http://www.w3.org/1999/xlink" width="15.5" height="14.100006103515625" viewBox="0 0 15.5 14.100006103515625" fill="none"><path id="路径 1" fill-rule="evenodd" style="fill:#FFFFFF" opacity="0.6" d="M14.88,2.42c0.34,0 0.62,0.28 0.62,0.61v10.33c0,0.02 0,0.04 0,0.06c0,0.02 0,0.04 0,0.06c0,0.34 -0.28,0.62 -0.62,0.62h-14.26c-0.34,0 -0.62,-0.28 -0.62,-0.62v-10.44c0,-0.34 0.28,-0.62 0.62,-0.62h3.57c0,-0.03 -0.01,-0.06 -0.01,-0.1v-1.7c0,-0.34 0.28,-0.62 0.63,-0.62h5.84c0.09,0 0.18,0.02 0.27,0.06c0.2,0.1 0.35,0.32 0.35,0.56v1.7c0,0.04 0,0.06 -0.01,0.1zM5.42,2.42h4.61c0,-0.03 -0.01,-0.06 -0.01,-0.1v-1.07h-4.59v1.07c0,0.04 0,0.07 -0.01,0.1zM1.25,3.66v2.23h13v-2.23zM14.25,12.86v-5.72h-2.94v1.1c0,0.35 -0.28,0.63 -0.63,0.63c-0.34,0 -0.62,-0.28 -0.62,-0.63v-1.1h-4.62v1.1c0,0.35 -0.28,0.63 -0.62,0.63c-0.35,0 -0.63,-0.28 -0.63,-0.63v-1.1h-2.94v5.72z"></path></svg>