<svg xmlns="http://www.w3.org/2000/svg" xmlns:xlink="http://www.w3.org/1999/xlink" width="14" height="14" viewBox="0 0 14 14" fill="none"><path id="并集" fill-rule="evenodd" style="fill:#FFFFFF" opacity="1" d="M11.48,8.7c0.67,-0.28 1.15,-0.94 1.15,-1.7c0,-0.76 -0.48,-1.42 -1.15,-1.7zM11.45,10.14c-0.29,2.16 -2.18,3.86 -4.45,3.86c-0.37,0 -0.69,-0.32 -0.69,-0.69c0,-0.36 0.32,-0.68 0.69,-0.68c1.69,0 3.11,-1.38 3.11,-3.11v-5.04c0,-1.69 -1.37,-3.11 -3.11,-3.11c-1.74,0 -3.11,1.38 -3.11,3.11v5.08c0,0.37 -0.32,0.69 -0.69,0.69c-0.09,0 -0.18,-0.02 -0.26,-0.06c-1.66,-0.13 -2.94,-1.54 -2.94,-3.19c0,-1.52 1.12,-2.83 2.56,-3.13c0.3,-2.18 2.18,-3.87 4.44,-3.87c2.26,0 4.14,1.68 4.44,3.86c1.47,0.3 2.56,1.62 2.56,3.14c0,1.52 -1.09,2.83 -2.55,3.14zM2.52,5.3c-0.67,0.28 -1.15,0.94 -1.15,1.7c0,0.76 0.48,1.42 1.15,1.7z"></path></svg>