<svg xmlns="http://www.w3.org/2000/svg" xmlns:xlink="http://www.w3.org/1999/xlink" width="12" height="11.938262939453125" viewBox="0 0 12 11.938262939453125" fill="none"><path id="分组 2" fill-rule="evenodd" style="fill:#1569AC" opacity="1" d="M11.96,3.61281v6.56999c0.06,1.02 -0.77,1.83 -1.78,1.75h-8.36c-1.01,0.08 -1.84,-0.73 -1.78,-1.75v-6.56999c-0.06,-0.06 -0.04,-0.13 -0.02,-0.18c0.01,-0.04 0.02,-0.09 0.05,-0.12l1.16,-2.34c0.31,-0.62 0.94,-1.01 1.64,-0.97h6.28c0.7,-0.04 1.33,0.35 1.64,0.99l1.14,2.32c0.03,0.04 0.04,0.08 0.05,0.12c0.02,0.05 0.04,0.12 -0.02,0.18zM10.91,3.36281l-0.87,-2c-0.18,-0.35 -0.52,-0.55 -0.9,-0.47h-6.27c-0.38,-0.08 -0.72,0.12 -0.88,0.46l-0.9,2.01zM11.08,4.23281h-10.16v5.95999c-0.1,0.54 0.35,0.98 0.9,0.96h8.36c0.55,0.02 0.99,-0.42 0.99,-0.96zM6.51,5.75281v1.54h1.52c0.21,0.02 0.39,0.2 0.39,0.42c0,0.22 -0.18,0.39 -0.39,0.37h-1.93c-0.22,0.02 -0.38,-0.15 -0.37,-0.37v-1.96c-0.01,-0.21 0.15,-0.39 0.37,-0.39c0.21,0 0.38,0.18 0.41,0.39z"></path></svg>