<svg xmlns="http://www.w3.org/2000/svg" xmlns:xlink="http://www.w3.org/1999/xlink" width="14.0001220703125" height="14" viewBox="0 0 14.0001220703125 14" fill="none"><g opacity="1"  transform="translate(0 0)  rotate(0)"><path id="矩形 1" fill-rule="evenodd" style="fill:#CCCCCC" opacity="0" d="M0 14L14 14L14 0L0 0L0 14Z"></path><g opacity="1"  transform="translate(1.2197265625 0.25)  rotate(0)"><path id="路径 1" fill-rule="evenodd" style="fill:#7F7F7F" opacity="1" d="M3.5 12.24C3.76 12.24 3.96 12.03 3.96 11.78C3.96 11.53 3.76 11.33 3.5 11.33L0.919999 11.33L0.919999 4.16L5.75 0.92L10.63 4.33L10.63 6.61C10.63 6.86 10.84 7.06 11.1 7.06C11.35 7.06 11.56 6.86 11.56 6.61L11.56 4.32C11.56 4.03 11.42 3.76 11.18 3.6L6.27 0.16C5.96 -0.05 5.55 -0.05 5.24 0.15L0.39 3.42C0.15 3.58 0 3.85 0 4.14L0 11.36C0 11.84 0.4 12.24 0.899999 12.24L3.5 12.24Z"></path><path id="并集" fill-rule="evenodd" style="fill:#7F7F7F" opacity="1" d="M11.3171,9.99387c0,0.24003 -0.03,0.47003 -0.08,0.70003c-0.04,0.23 -0.11,0.45 -0.2,0.66c-0.09,0.21 -0.2,0.41 -0.32,0.6c-0.13,0.18 -0.27,0.36 -0.43,0.52c-0.16,0.16 -0.33998,0.3 -0.51998,0.43c-0.19,0.12 -0.39,0.23 -0.6,0.32c-0.21,0.09 -0.43,0.16 -0.66,0.2c-0.23,0.05 -0.46,0.08 -0.7,0.08c-0.24,0 -0.48,-0.03 -0.71,-0.08c-0.22,-0.04 -0.44,-0.11 -0.66,-0.2c-0.21,-0.09 -0.4,-0.2 -0.59,-0.32c-0.19,-0.13 -0.36,-0.27 -0.52,-0.43c-0.16,-0.16 -0.3,-0.34 -0.43,-0.52c-0.13,-0.19 -0.24,-0.39 -0.32,-0.6c-0.09,-0.21 -0.16,-0.43 -0.21,-0.66c-0.05,-0.23 -0.07,-0.46 -0.07,-0.70003c0,-0.24 0.02,-0.48 0.07,-0.71c0.05,-0.21999 0.12,-0.43999 0.21,-0.65999c0.08,-0.21 0.19,-0.4 0.32,-0.59c0.13,-0.19 0.27,-0.36 0.43,-0.52c0.16,-0.16 0.33,-0.3 0.52,-0.43c0.19,-0.13 0.38,-0.23999 0.59,-0.31999c0.22,-0.09 0.44,-0.16 0.66,-0.21c0.23,-0.05 0.47,-0.07 0.71,-0.07c0.36,0 0.72,0.05 1.07,0.17c0.34,0.11 0.67,0.26999 0.96,0.47999c0.05,0.03 0.08,0.07 0.11,0.12c0.03,0.05 0.05,0.09 0.05998,0.15c0.01,0.05 0.01,0.1 0,0.16c-0.01998,0.05 -0.03998,0.1 -0.06998,0.15c-0.03,0.04 -0.07,0.08 -0.12,0.11c-0.05,0.03 -0.1,0.04 -0.15,0.05c-0.05,0.01 -0.1,0.01 -0.16,0c-0.05,-0.01 -0.1,-0.04 -0.15,-0.07c-0.24,-0.17 -0.51,-0.3 -0.8,-0.39c-0.2,-0.06 -0.41,-0.09 -0.62,-0.1c-0.2,-0.01 -0.41,0 -0.61,0.04c-0.2,0.04 -0.4,0.1 -0.59,0.18c-0.19,0.08 -0.37,0.19 -0.54,0.31c-0.17,0.13 -0.32,0.27 -0.45,0.43c-0.14,0.16 -0.25,0.33 -0.34,0.52c-0.09,0.18 -0.16,0.38 -0.21,0.57999c-0.05,0.2 -0.07,0.41 -0.07,0.62c0,0.18003 0.01,0.36003 0.05,0.54003c0.04,0.17 0.09,0.34 0.16,0.5c0.06,0.16 0.15,0.31 0.24,0.46c0.1,0.14 0.21,0.27 0.33,0.39c0.12,0.13 0.26,0.24 0.4,0.33c0.14,0.1 0.3,0.18 0.46,0.25c0.16,0.07 0.33,0.12 0.5,0.16c0.18,0.03 0.36,0.05 0.54,0.05c0.18,0 0.36,-0.02 0.54,-0.05c0.17,-0.04 0.34,-0.09 0.5,-0.16c0.16,-0.07 0.31,-0.15 0.46,-0.25c0.14,-0.09 0.27,-0.2 0.39,-0.33c0.13,-0.12 0.24,-0.25 0.32998,-0.39c0.1,-0.15 0.18,-0.3 0.25,-0.46c0.07,-0.16 0.12,-0.33 0.16,-0.5c0.03,-0.18 0.05,-0.36 0.05,-0.54003c0,-0.19 -0.02,-0.38 -0.06,-0.56c-0.02,-0.08 -0.04,-0.16999 -0.06,-0.24999l-2.70998,2.65002c-0.04,0.04 -0.08,0.07 -0.13,0.09c-0.05,0.02 -0.1,0.03 -0.16,0.03c-0.05,0 -0.1,-0.01 -0.15,-0.03c-0.05,-0.02 -0.1,-0.05 -0.14,-0.09l-1.42,-1.43c-0.04,-0.04 -0.07,-0.08 -0.09,-0.13c-0.02,-0.05 -0.03,-0.11 -0.03,-0.16c0,-0.05 0.01,-0.1 0.03,-0.15003c0.02,-0.05 0.05,-0.1 0.09,-0.14c0.04,-0.04 0.09,-0.07 0.14,-0.09c0.05,-0.02 0.1,-0.03 0.15,-0.03c0.05,0 0.1,0.01 0.15,0.03c0.05,0.02 0.1,0.05 0.14,0.09l1.14,1.14003l2.79998,-2.75002l0.01,-0.01c0.04,-0.04 0.09,-0.06 0.14,-0.08c0.04,-0.02 0.08,-0.02 0.12,-0.02c0.04,-0.01 0.07,-0.01 0.11,-0.01c0.04,0.01 0.09,0.02 0.13,0.03c0.04,0.02 0.08,0.05 0.11,0.08c0.03,0.03 0.06,0.06 0.09,0.1c0.14,0.26 0.24,0.53 0.32,0.82c0.07,0.27999 0.11,0.56999 0.11,0.86999z"></path></g></g></svg>