<svg xmlns="http://www.w3.org/2000/svg" xmlns:xlink="http://www.w3.org/1999/xlink" width="11.3399658203125" height="12" viewBox="0 0 11.3399658203125 12" fill="none"><path id="并集" fill-rule="evenodd" style="fill:#1569AC" opacity="1" d="M3.89,11.55c0,0.25 -0.21,0.45 -0.46,0.45h-2.55c-0.49,0 -0.88,-0.39 -0.88,-0.86v-7.08c0,-0.28 0.14,-0.55 0.38,-0.71l4.76,-3.2c0.3,-0.2 0.71,-0.2 1.01,0.01l4.82,3.37c0.23,0.16 0.37,0.42 0.37,0.7v2.25c0,0.24 -0.21,0.44 -0.46,0.44c-0.25,0 -0.45,-0.2 -0.45,-0.44v-2.23l-4.79,-3.35l-4.73,3.18v7.03h2.52c0.25,0 0.46,0.2 0.46,0.44zM9.16,11.75c-0.08,0.09 -0.2,0.14 -0.32,0.14c-0.1,0 -0.21,-0.04 -0.3,-0.12c-0.17,-0.17 -0.18,-0.44 -0.02,-0.62l1.33,-1.42h-4.31c-0.24,0 -0.43,-0.2 -0.43,-0.44c0,-0.24 0.19,-0.44 0.43,-0.44h4.33l-1.44,-1.4c-0.17,-0.17 -0.17,-0.45 0,-0.62c0.17,-0.17 0.44,-0.18 0.62,-0.01l2.15,2.12c0.17,0.17 0.18,0.44 0.02,0.61z"></path></svg>