<?xml version="1.0" standalone="no"?><!DOCTYPE svg PUBLIC "-//W3C//DTD SVG 1.1//EN" "http://www.w3.org/Graphics/SVG/1.1/DTD/svg11.dtd"><svg t="1690772899414" class="icon" viewBox="0 0 1024 1024" version="1.1" xmlns="http://www.w3.org/2000/svg" p-id="5762" xmlns:xlink="http://www.w3.org/1999/xlink" width="200" height="200"><path d="M512 960C264.96 960 64 759.04 64 512S264.96 64 512 64s448 200.96 448 448-200.96 448-448 448z m0-831.712c-211.584 0-383.712 172.128-383.712 383.712 0 211.552 172.128 383.712 383.712 383.712 211.552 0 383.712-172.16 383.712-383.712 0-211.584-172.16-383.712-383.712-383.712z" fill="#7f7f7f" p-id="5763"></path><path d="M726.976 393.184c-12.544-12.448-32.832-12.32-45.248 0.256l-233.28 235.84-103.264-106.112c-12.352-12.704-32.608-12.928-45.248-0.64-12.672 12.32-12.96 32.608-0.64 45.248L425.312 697.28c0.064 0.096 0.192 0.096 0.256 0.192 0.064 0.064 0.096 0.192 0.16 0.256 2.016 1.984 4.512 3.2 6.88 4.544 1.248 0.672 2.24 1.792 3.52 2.304 3.872 1.6 8 2.4 12.096 2.4 4.064 0 8.128-0.8 11.968-2.336 1.248-0.512 2.208-1.536 3.392-2.176 2.4-1.344 4.896-2.528 6.944-4.544 0.064-0.064 0.096-0.192 0.192-0.256 0.064-0.096 0.16-0.128 0.256-0.192L727.2 438.464c12.448-12.608 12.32-32.864-0.224-45.28z" fill="#7f7f7f" p-id="5764"></path></svg>