<svg xmlns="http://www.w3.org/2000/svg" xmlns:xlink="http://www.w3.org/1999/xlink" width="13" height="13" viewBox="0 0 13 13" fill="none"><path id="路径 1" fill-rule="evenodd" style="fill:#F62B2B" opacity="1" d="M12.49,3.97c0.34,0.8 0.51,1.65 0.51,2.53c0,0.88 -0.17,1.73 -0.51,2.53c-0.33,0.77 -0.8,1.47 -1.39,2.07c-0.6,0.59 -1.3,1.06 -2.07,1.39c-0.8,0.34 -1.65,0.51 -2.53,0.51c-0.88,0 -1.73,-0.17 -2.53,-0.51c-0.77,-0.33 -1.47,-0.8 -2.07,-1.39c-0.59,-0.6 -1.06,-1.3 -1.39,-2.07c-0.34,-0.8 -0.51,-1.65 -0.51,-2.53c0,-0.88 0.17,-1.73 0.51,-2.53c0.33,-0.77 0.8,-1.47 1.39,-2.07c0.6,-0.59 1.3,-1.06 2.07,-1.39c0.8,-0.34 1.65,-0.51 2.53,-0.51c0.88,0 1.73,0.17 2.53,0.51c0.77,0.33 1.47,0.8 2.07,1.39c0.59,0.6 1.06,1.3 1.39,2.07zM6.5,11.83c2.94,0 5.33,-2.39 5.33,-5.33c0,-2.94 -2.39,-5.33 -5.33,-5.33c-2.94,0 -5.33,2.39 -5.33,5.33c0,2.94 2.39,5.33 5.33,5.33zM9.38,4.45l-2.05,2.05l2.05,2.05c0.23,0.23 0.23,0.6 0,0.83c-0.12,0.11 -0.27,0.17 -0.42,0.17c-0.15,0 -0.3,-0.06 -0.41,-0.17l-2.05,-2.05l-2.05,2.05c-0.11,0.11 -0.26,0.17 -0.41,0.17c-0.15,0 -0.3,-0.06 -0.42,-0.17c-0.23,-0.23 -0.23,-0.6 0,-0.83l2.05,-2.05l-2.05,-2.05c-0.23,-0.23 -0.23,-0.6 0,-0.83c0.23,-0.23 0.6,-0.23 0.83,0l2.05,2.05l2.05,-2.05c0.23,-0.23 0.6,-0.23 0.83,0c0.23,0.23 0.23,0.6 0,0.83z"></path></svg>