<svg xmlns="http://www.w3.org/2000/svg" xmlns:xlink="http://www.w3.org/1999/xlink" width="11.969970703125" height="12.83001708984375" viewBox="0 0 11.969970703125 12.83001708984375" fill="none"><path id="分组 2" fill-rule="evenodd" style="fill:#1569AC" opacity="1" d="M10.15,0.97h-8.95c-0.14,-0.01 -0.25,0.11 -0.25,0.25v10.39c0,0.15 0.11,0.26 0.25,0.25h1.94999c0.35,0.01 0.63,0.11 0.63,0.46c0,0.35 -0.28,0.51 -0.63,0.51h-1.88999c-0.69,0 -1.26,-0.57 -1.26,-1.28v-10.27c0,-0.7 0.57,-1.28 1.26,-1.28h8.82c0.7,0 1.26,0.58 1.23,1.28v2.6c0.03,0.35 -0.12,0.64 -0.47,0.64c-0.35,0 -0.44,-0.29 -0.48,-0.64v-2.66c0.04,-0.14 -0.08,-0.26 -0.21,-0.25zM3.14999,2.55h1.26c0.35,0 0.63,0.22 0.63,0.48c0,0.26 -0.28,0.48 -0.63,0.47h-1.26c-0.34,0.01 -0.63,-0.21 -0.63,-0.47c0,-0.26 0.29,-0.48 0.63,-0.48zM8.18998,12.83c-2.08999,0 -3.77999,-1.73 -3.77999,-3.85001c0,-2.12 1.69,-3.84999 3.77999,-3.84999c2.08002,0 3.78002,1.72999 3.78002,3.84999c0,2.12001 -1.7,3.85001 -3.78002,3.85001zM5.35999,8.98999c0,1.59001 1.27,2.89001 2.83999,2.89001c1.56,0 2.83002,-1.3 2.83002,-2.89001c0,-1.59 -1.27002,-2.89 -2.83002,-2.89c-1.56999,0 -2.83999,1.3 -2.83999,2.89zM9.42998,8.56999c0.26,-0.01 0.47,0.21 0.47,0.47c0,0.26 -0.21,0.48 -0.47,0.48h-2.58c-0.25999,0 -0.46999,-0.22 -0.46999,-0.48c0,-0.26 0.21,-0.48 0.46999,-0.47z"></path></svg>