<?xml version="1.0" encoding="utf-8"?>
<!-- Generator: Adobe Illustrator 26.0.0, SVG Export Plug-In . SVG Version: 6.00 Build 0)  -->
<svg version="1.1" id="图层_1" xmlns="http://www.w3.org/2000/svg" xmlns:xlink="http://www.w3.org/1999/xlink" x="0px" y="0px"
	 viewBox="0 0 39.7 39.7" style="enable-background:new 0 0 39.7 39.7;" xml:space="preserve">
<style type="text/css">
	.st0{fill:#AAAAAA;}
</style>
<g>
	<path class="st0" d="M27.9,32.8c-2.7,0-5-2.2-5-5s2.2-5,5-5s5,2.2,5,5S30.7,32.8,27.9,32.8z M27.9,25c-1.5,0-2.8,1.2-2.8,2.8
		c0,1.5,1.2,2.8,2.8,2.8c1.5,0,2.8-1.2,2.8-2.8C30.7,26.3,29.5,25,27.9,25z"/>
	<path class="st0" d="M38.5,25.3l-0.7-1.4c-0.1-0.4-0.4-0.9-0.5-1.2c-0.2-0.5-0.5-1-1-1.5l-1.1-0.7l-1.8,0.3l-1,0.2L31.4,18
		l-0.3-0.1l-0.9-0.2c-0.7-0.2-1.5-0.3-2.3-0.3c-0.7,0-1.4,0.1-1.9,0.3h-1.2l-1.2,3.1l-2.9-0.4L19.9,21l-0.1,0.1l-0.2,0.1
		c-0.5,0.7-1,1.4-1.2,2.2c-0.3,0.4-0.4,0.7-0.5,1.2l-0.3,1l1.9,2.3l-2.1,2.3l0.4,1c0,0.1,0,0.3,0.1,0.4c0.1,0.6,0.4,1.1,0.6,1.6
		c0.1,0.3,0.3,0.5,0.5,0.7c0.1,0.3,0.3,0.5,0.5,0.8l0.7,0.7l3.2-0.4l1,2.8l1.1,0.2c0.8,0.2,1.5,0.3,2.3,0.3c0.8,0,1.6-0.1,2.4-0.3
		l1-0.3l1.2-2.9l2.8,0.4l1-0.7c0.7-0.9,1.3-1.9,1.8-3.1l0.5-1.1l-2-2.4L38.5,25.3z M34.6,29l1.2,1.6c-0.4,0.9-0.8,1.7-1.2,2.1
		l-0.1,0.1l-2.3-0.4c-0.1,0-0.1,0-0.2,0c-0.7,0.1-1.4,0.4-1.7,1.1c0,0.1-0.1,0.1-0.1,0.2l-0.7,2c-0.6,0.2-1.2,0.2-1.7,0.2
		c-0.6,0-1.2,0-1.8-0.2l-0.7-1.9l-0.1-0.2c-0.4-0.7-1.1-1.1-1.9-1.1l-2.3,0.4c-0.3-0.3-0.4-0.5-0.6-0.9c-0.1-0.2-0.2-0.4-0.3-0.5
		c-0.2-0.3-0.2-0.5-0.3-0.9l1.3-1.5c0.6-0.5,0.6-1.6,0.1-2.5L20,25c0.3-0.5,0.5-1.1,0.9-1.6c0.1-0.3,0.3-0.5,0.4-0.7l2,0.4l0.4,0.1
		c0.9,0,1.6-0.5,1.9-1.3l0.3-0.7l0.5-1.2c0.5-0.1,1.1-0.2,1.6-0.2c0.6,0,1.2,0.1,1.8,0.2l0.6,1.8c0.1,0.4,0.4,0.9,0.8,1.1
		c0.4,0.3,0.8,0.4,1.3,0.4h0.1l0.9-0.1l1.3-0.2c0.2,0.4,0.4,0.6,0.5,0.9v0.1c0.1,0.3,0.3,0.5,0.4,0.8l0.1,0.4l-1.2,1.6
		C34.1,27.2,34,28.2,34.6,29z"/>
	<path class="st0" d="M33.4,16.5V6.2c0-2.6-2-4.6-4.6-4.6h-23c-2.6,0-4.6,2-4.6,4.6v23c0,2.5,2,4.6,4.6,4.6H17
		c-0.4-0.7-0.7-1.4-0.8-1.9L16,31.5H5.8c-0.6,0-1.2-0.3-1.6-0.7c-0.4-0.4-0.7-1-0.7-1.6v-23c0-1.3,1.1-2.4,2.3-2.4h23
		c1.2,0,2.3,1.1,2.3,2.3c0,0.1,0,0.1,0,0.1v10l0.6,0.1L33.4,16.5z"/>
	<path class="st0" d="M15.6,10c-0.4-0.5-1.2-0.5-1.6-0.1c0,0,0,0-0.1,0l-3.7,3.8l-1.5-1.4c-0.4-0.5-1.2-0.5-1.7,0
		c-0.4,0.4-0.4,1.2,0,1.6l2.3,2.3c0.3,0.2,0.5,0.4,0.9,0.4c0.3,0,0.5-0.2,0.8-0.4l4.6-4.6C16,11.1,16,10.4,15.6,10z M11.3,18.2
		c-1.5,0-2.8,0.7-3.6,2C7,21.5,7,23,7.7,24.3c0.8,1.2,2.1,2,3.6,1.9c2.1-0.1,3.9-1.9,3.9-4C15.2,20.1,13.4,18.3,11.3,18.2z
		 M12.5,23.4c-0.4,0.4-1.1,0.6-1.6,0.5c-0.6-0.2-1.2-0.7-1.2-1.2c-0.2-0.6,0-1.2,0.4-1.7c0.7-0.7,1.8-0.7,2.4,0
		C13.2,21.8,13.2,22.8,12.5,23.4z M27.4,11.8h-9.2c-0.6,0-1.2,0.5-1.2,1.2c0,0.7,0.5,1.2,1.2,1.2h9.2c0.4,0,0.8-0.2,1-0.5
		c0.2-0.4,0.2-0.8,0-1.2C28.2,12.1,27.8,11.8,27.4,11.8z"/>
</g>
</svg>
