<svg xmlns="http://www.w3.org/2000/svg" xmlns:xlink="http://www.w3.org/1999/xlink" width="15.782432556152344" height="16.00152587890625" viewBox="0 0 15.782432556152344 16.00152587890625" fill="none"><path id="并集" fill-rule="evenodd" style="fill:#FFFFFF" opacity="0.6" d="M15.3612,2.56c0.56,0.56 0.56,1.46 0.01,2.03l-1.1,1.1l-5.68002,5.64l3.24002,3.24c0.56,0.58 1.49,0.59 2.07,0.02c0.58,-0.56 0.59,-1.49 0.03,-2.07l-3.23,-3.23l0.54,-0.55l3.33,3.34c0.87,0.87 0.87,2.27 0.01,3.14c-0.87,0.87 -2.27,0.87 -3.14,0l-3.34002,-3.34l-2.29001,2.28c-0.02999,0.03 -0.07,0.06 -0.11,0.08h-0.04l-4.82999,1.74c-0.15,0.05 -0.3,0.01 -0.42,-0.09c-0.11,-0.1 -0.16,-0.25 -0.12,-0.4v-0.03l1.75,-4.82c0.01,-0.04 0.04,-0.08 0.07,-0.11l0.03001,-0.04l2.33999,-2.32l-0.64,-0.64c-0.54,0.13 -1.11,0.09 -1.63,-0.11c-0.62,-0.11 -1.18,-0.41 -1.61999,-0.86c-0.18,-0.19 -0.33,-0.41 -0.43,-0.65c0,-0.12 -0.11,-0.12 -0.11,-0.22c-0.01,-0.09 0.01,-0.18 0.08,-0.24c0.06,-0.07 0.15,-0.09 0.24,-0.08h2.38l0.43,-0.76l0.43,-0.76l-0.42,-0.76l-0.44,-0.75h-2.38999c-0.1,0 -0.1,-0.01 -0.21,-0.12c-0.11,-0.1 -0.21,-0.32 -0.11,-0.43c0.11,-0.11 0.11,-0.21 0.22,-0.32l0.33,-0.33c0.68999,-0.73 1.65,-1.14 2.64999,-1.14c1.01,0 1.97,0.41 2.66001,1.14c0.44,0.46 0.77,1.02 0.96999,1.63c0.14001,0.51 0.19,1.05 0.13,1.59l0.62,0.62l2.96003,-2.95l1.12,-1.12c0.56,-0.54 1.45,-0.54 2.01,0zM4.97117,7.69l2.22,-2.21l-0.03999,0.03l-0.93001,-1.03c0.07,-0.5 0.03,-1 -0.10999,-1.49c-0.13001,-0.49 -0.39001,-0.94 -0.76001,-1.3c-0.52999,-0.56 -1.25999,-0.89 -2.03,-0.91c-0.78,-0.02 -1.52,0.27 -2.08,0.81h1.73c0.11,0 0.22,0.1 0.33,0.21l1.08001,1.97c0.04999,0.04 0.07999,0.1 0.07999,0.17c0,0.06 -0.03,0.12 -0.07999,0.16l-0.54001,0.87l-0.54,0.96c-0.11,0.11 -0.22,0.22 -0.33,0.22h-1.73c0.31,0.29 0.68,0.51 1.08,0.63c0.5,0.11 1.02,0.11 1.52,0c0.12,-0.01 0.24,0.03 0.32,0.11zM14.8112,3.19l-0.04,-0.05l-1.64,-1.64c-0.24,-0.23 -0.62,-0.23 -0.85,0l-0.53,0.53l2.49,2.49l0.53,-0.53c0.22,-0.22 0.24,-0.57 0.04,-0.8zM11.1912,2.64l-8.06002,8.05l0.92999,0.93l8.06003,-8.05zM5.61118,13.17l8.06002,-8.05l-0.97,-0.96l-8.05002,8.04zM2.10117,12.91l1.28001,1.27l1.50999,-0.55l-2.23999,-2.25zM13.6921,14.2431c-0.5,0.44 -1.24,0.44 -1.73,0c-0.44,-0.45 -0.44,-1.17 0,-1.62c0.49,-0.44 1.23,-0.44 1.73,0c0.43,0.45 0.43,1.17 0,1.62zM12.5021,13.8131c0.08,0.09 0.2,0.15 0.32,0.15c0.13,0 0.25,-0.06 0.33,-0.15c0.1,-0.08 0.16,-0.2 0.16,-0.33c0,-0.13 -0.06,-0.24 -0.16,-0.32c-0.08,-0.1 -0.2,-0.16 -0.33,-0.16c-0.12,0 -0.24,0.06 -0.32,0.16c-0.12,0.2 -0.12,0.44 0,0.65zM1.37117,14.9l1.16,-0.41l-0.74,-0.74z"></path></svg>