<svg xmlns="http://www.w3.org/2000/svg" xmlns:xlink="http://www.w3.org/1999/xlink" width="14" height="14" viewBox="0 0 14 14" fill="none"><path id="并集" fill-rule="evenodd" style="fill:#F62B2B" opacity="1" d="M7,0c3.87,0 7,3.13 7,7c0,3.87 -3.13,7 -7,7c-3.87,0 -7,-3.13 -7,-7c0,-3.87 3.13,-7 7,-7zM1.12,7c0,3.25 2.63,5.88 5.88,5.88c3.25,0 5.88,-2.63 5.88,-5.88c0,-3.25 -2.63,-5.88 -5.88,-5.88c-3.25,0 -5.88,2.63 -5.88,5.88zM7.56,8.41c0,0.31 -0.25,0.56 -0.56,0.56c-0.31,0 -0.56,-0.25 -0.56,-0.56v-4.5c0,-0.31 0.25,-0.57 0.56,-0.57c0.31,0 0.56,0.26 0.56,0.57zM7.56,10.09c0,0.31 -0.25,0.57 -0.56,0.57c-0.31,0 -0.56,-0.26 -0.56,-0.57c0,-0.31 0.25,-0.56 0.56,-0.56c0.31,0 0.56,0.25 0.56,0.56z"></path></svg>