<svg xmlns="http://www.w3.org/2000/svg" xmlns:xlink="http://www.w3.org/1999/xlink" width="12" height="11.370002746582031" viewBox="0 0 12 11.370002746582031" fill="none"><path id="并集" fill-rule="evenodd" style="fill:#FFFFFF" opacity="1" d="M6.53,1.7v6.94c0,0.25 -0.24,0.45 -0.54,0.45c-0.3,0 -0.54,-0.2 -0.54,-0.45v-6.85l-2.05,2.05c-0.1,0.1 -0.23,0.16 -0.37,0.16c-0.14,0 -0.27,-0.06 -0.37,-0.16c-0.21,-0.2 -0.21,-0.53 0,-0.74l2.85,-2.85c0.09,-0.15 0.27,-0.25 0.48,-0.25c0.15,0 0.28,0.05 0.38,0.13c0.04,0.02 0.08,0.05 0.11,0.08l2.86,2.86c0.19,0.2 0.19,0.52 0,0.72c-0.1,0.09 -0.23,0.15 -0.36,0.15c-0.14,0 -0.27,-0.06 -0.36,-0.15zM0,10.83v-3.79c0,-0.36 0.18,-0.54 0.54,-0.54c0.36,0 0.54,0.18 0.54,0.54v3.25h9.82v-3.25c0,-0.36 0.18,-0.54 0.54,-0.54c0.36,0 0.54,0.18 0.54,0.54v3.63c0.01,0.05 0.02,0.1 0.02,0.16c0,0.1 -0.03,0.19 -0.07,0.27c-0.05,0.12 -0.14,0.2 -0.27,0.24c-0.05,0.02 -0.1,0.03 -0.16,0.03h-0.03c-0.01,0 -0.02,0 -0.03,0c-0.01,0 -0.02,0 -0.03,0h-10.84c-0.01,0 -0.02,0 -0.03,0c-0.36,0 -0.54,-0.18 -0.54,-0.54z"></path></svg>