<?xml version="1.0" encoding="utf-8"?>
<!-- Generator: Adobe Illustrator 26.0.0, SVG Export Plug-In . SVG Version: 6.00 Build 0)  -->
<svg version="1.1" id="图层_1" xmlns="http://www.w3.org/2000/svg" xmlns:xlink="http://www.w3.org/1999/xlink" x="0px" y="0px"
	 viewBox="0 0 39.7 39.7" style="enable-background:new 0 0 39.7 39.7;" xml:space="preserve">
<style type="text/css">
	.st0{fill:#64676F;}
</style>
<g>
	<path class="st0" d="M29.5,37.4c-0.7,0-1.3-0.1-2-0.2L26.5,37l-0.8-2.4L23.1,35l-0.7-0.7c-0.4-0.4-0.7-0.8-0.9-1.3
		c-0.3-0.5-0.5-1.1-0.6-1.7l-0.4-0.9l1.7-1.9l-1.6-1.8l0.2-0.9c0.5-1.2,1-2.1,1.6-2.9l1-0.8l2.4,0.4l1-2.6h1.2c1-0.3,2.4-0.3,3.7,0
		l1,0.2l0.9,2.4l2.2-0.3l1.1,0.7c0.3,0.5,0.6,0.9,0.8,1.3c0.1,0.3,0.3,0.7,0.4,1l0.6,1.3L37,28.5l1.7,2l-0.5,1
		c-0.4,1-0.9,1.9-1.5,2.6l-0.9,0.7l-2.3-0.4l-0.9,2.4l-0.9,0.2C30.9,37.3,30.2,37.4,29.5,37.4z M28.2,35c0.8,0.2,1.7,0.2,2.6,0
		l0.6-1.6c0.2-0.7,1-1.2,1.8-1.2l1.9,0.3c0.2-0.3,0.6-0.9,0.9-1.6l-1-1.2c-0.5-0.8-0.5-1.7,0-2.3l1-1.3l-0.1-0.2
		c-0.1-0.3-0.2-0.5-0.3-0.7c-0.1-0.2-0.3-0.4-0.4-0.6l-1.7,0.2c0,0,0,0,0,0c-1.1,0-1.8-0.6-2.1-1.4L30.9,22c-0.9-0.2-1.7-0.2-2.5,0
		l-0.6,1.5c-0.2,0.7-0.9,1.2-1.8,1.2L24,24.4c-0.3,0.5-0.7,1.1-0.9,1.6l1.1,1.3c0.6,0.8,0.5,1.8-0.1,2.4L23,30.9
		c0.1,0.4,0.2,0.7,0.4,1c0.1,0.3,0.3,0.5,0.4,0.7l1.8-0.3c0,0,0,0,0,0c0.8,0,1.4,0.4,1.8,0.9l0.1,0.3L28.2,35z M33.6,34.1L33.6,34.1
		C33.5,34.2,33.6,34.2,33.6,34.1z M22.4,28.1C22.4,28.2,22.4,28.2,22.4,28.1L22.4,28.1z M25.6,22.7C25.6,22.7,25.6,22.8,25.6,22.7
		L25.6,22.7z M33.5,22.6L33.5,22.6C33.5,22.6,33.5,22.6,33.5,22.6z M29.6,32.9c-2.5,0-4.4-2-4.4-4.4c0-2.5,2-4.4,4.4-4.4
		c2.4,0,4.4,2,4.4,4.4C34,30.9,32,32.9,29.6,32.9z M29.6,26.4c-1.2,0-2.2,0.9-2.2,2.2c0,1.1,1,2.1,2.2,2.1c1.1,0,2.1-1,2.1-2.1
		C31.7,27.4,30.7,26.4,29.6,26.4z"/>
	<path class="st0" d="M20.5,35.3L1.2,35.2l-0.1-1c-0.8-6.8,2.7-13.3,8.6-16.4c-1.2-1.6-1.9-3.5-2-5.5c-0.1-2.6,0.8-5,2.6-6.9
		c1.7-1.9,4.1-3,6.7-3c2.6-0.1,5,0.8,6.9,2.6c1.9,1.7,3,4.1,3.1,6.7c0.1,2.3-0.6,4.5-2,6.2c0.4,0.2,0.7,0.4,1.1,0.6l-1.2,2
		c-0.8-0.5-1.5-0.9-2.2-1.2l-2.1-0.8l2.1-1.5c1.3-1.4,2-3.3,1.9-5.2c-0.1-2-0.9-3.8-2.4-5.1c-1.4-1.3-3.3-2.1-5.3-2
		c-2,0.1-3.8,0.9-5.1,2.3c-1.4,1.5-2.1,3.3-2,5.3c0.1,2,0.9,3.8,2.3,5.1l1.3,1.2l-1.7,0.7C6.5,21.5,3,27,3.3,32.9L20.5,33L20.5,35.3
		z"/>
</g>
</svg>
